<svg width="221" height="204" viewBox="0 0 221 204" fill="none" xmlns="http://www.w3.org/2000/svg">
<path d="M156.851 111.473V175.622H221V111.473H156.851ZM161.735 170.737V116.194H216.278V170.737H161.735Z" fill="#EBEBEB"/>
<path d="M186.296 0H0.158142V186.138H186.296V0Z" fill="#2E45F0"/>
<path d="M36.049 186.439H139.841C140.326 182.397 124.321 98.1513 105.729 70.9859C103.627 67.9136 85.5202 65.6498 78.73 73.2497C43.4859 113.998 35.2407 185.469 36.049 186.439Z" fill="#263238"/>
<path d="M108.154 78.1008C111.064 85.7006 122.219 112.543 128.201 131.623C132.243 144.559 133.86 155.393 134.668 158.142C134.668 158.142 103.951 148.278 97.1604 148.278C86.4902 148.278 69.5148 170.431 73.7182 173.18C80.3467 177.546 111.549 192.422 136.608 197.111C150.188 199.698 175.894 182.397 173.792 168.652C170.882 149.41 136.123 98.4749 122.866 84.0836C115.914 76.6455 104.597 68.7222 108.154 78.1008Z" fill="#EB9481"/>
<path d="M175.571 172.856C174.924 186.763 157.625 198.405 147.44 199.052C129.979 200.184 77.9216 184.984 77.9216 184.984L98.1304 145.853C98.1304 145.853 133.536 157.818 134.506 158.303C134.183 157.333 125.453 124.347 121.573 113.513C121.411 112.866 121.088 112.219 120.926 111.572C119.794 108.5 118.178 104.619 116.561 100.254C115.591 97.8281 114.621 95.4026 113.651 92.9771C109.286 82.3049 105.244 72.1179 105.244 72.1179C111.226 73.0881 117.046 76.1604 126.746 86.3474C136.446 96.5345 176.702 149.895 175.571 172.856Z" fill="#263238"/>
<path d="M91.5019 176.414C92.957 173.665 94.412 170.916 95.867 168.167C97.3221 165.418 98.7771 162.831 100.232 160.082C101.687 157.333 103.304 154.584 104.597 151.674C104.597 151.674 104.597 151.512 104.436 151.674C102.657 154.099 101.04 156.686 99.5855 159.274C97.9688 162.023 96.5137 164.771 95.0587 167.52C93.6036 170.269 92.1486 172.856 90.8552 175.605C89.4002 178.354 87.9452 181.265 86.9752 184.337C86.9752 184.499 87.1368 184.499 87.1368 184.499C88.7535 181.75 90.2086 179.001 91.5019 176.414Z" fill="#37474F"/>
<path d="M145.5 163.963L134.668 158.142C134.345 157.172 125.614 124.185 121.734 113.351C121.573 112.704 121.249 112.058 121.088 111.411C119.956 108.338 118.339 104.458 116.723 100.092L145.5 163.963Z" fill="#37474F"/>
<path d="M154.553 168.652C151.482 166.388 148.248 164.448 145.015 162.508C143.398 161.537 141.781 160.729 140.003 159.92C138.225 159.112 136.285 158.465 134.506 157.657C134.345 157.657 134.345 157.818 134.345 157.818C135.961 158.627 137.578 159.597 139.195 160.567C140.973 161.537 142.59 162.346 144.368 163.316C147.763 165.256 150.997 167.035 154.553 168.652C154.553 168.976 154.553 168.814 154.553 168.652Z" fill="#37474F"/>
<path d="M146.632 160.244C143.883 160.244 127.554 155.878 125.129 158.142C110.579 171.886 105.891 169.137 102.819 170.916C78.73 184.66 46.7193 200.992 35.2407 200.992C17.9419 201.154 10.9901 186.601 13.9002 172.856C19.5586 145.691 56.2578 92.6536 72.9099 78.4241C81.6401 70.9859 80.9934 82.1431 77.4366 94.4323C75.3349 101.547 71.6165 112.219 67.7364 122.73C64.3413 132.108 55.4494 155.878 55.2878 156.525C55.2878 156.525 55.2878 156.525 55.4495 156.525C56.2578 156.363 76.7899 146.661 97.3221 141.325C104.597 139.385 119.794 136.797 125.129 139.223C128.363 140.678 128.363 142.619 128.363 142.619C128.363 142.619 130.95 142.457 133.698 144.559C135.476 146.014 136.123 148.116 136.123 148.116C136.123 148.116 139.033 148.44 140.488 150.218C142.266 152.159 142.428 154.261 142.428 154.261C146.147 155.555 146.632 160.244 146.632 160.244Z" fill="#EB9481"/>
<path d="M122.381 142.295C120.118 142.295 118.016 142.619 115.914 142.942C115.752 142.942 115.752 143.266 115.914 143.104C118.016 142.942 120.118 142.781 122.219 142.781C124.321 142.781 126.423 142.619 128.524 142.781C126.584 142.457 124.483 142.295 122.381 142.295Z" fill="#263238"/>
<path d="M136.123 148.44C132.405 147.47 129.333 146.823 124.644 147.47C124.483 147.47 124.483 147.793 124.644 147.631C129.171 147.308 132.081 147.793 136.123 148.44Z" fill="#263238"/>
<path d="M142.267 154.423C138.548 152.806 135.638 152.321 131.435 152.321C131.273 152.321 131.273 152.483 131.435 152.483C135.476 152.806 138.386 153.453 142.267 154.423C142.428 154.585 142.428 154.423 142.267 154.423Z" fill="#263238"/>
<path d="M96.3521 141.81C94.5738 141.972 92.7954 142.619 91.017 142.942C89.077 143.427 87.2986 143.912 85.3585 144.559C81.6401 145.853 78.0834 147.308 74.5266 148.763C74.365 148.763 74.5266 149.087 74.6883 148.925C78.245 147.631 81.9635 146.5 85.5202 145.368C87.2986 144.883 89.077 144.236 90.8553 143.589C92.6337 142.942 94.5738 142.619 96.3521 141.81C96.5138 141.972 96.5138 141.81 96.3521 141.81Z" fill="#263238"/>
<path d="M81.9634 145.691C85.8435 144.397 87.4602 144.397 87.4602 144.397L109.124 180.941C109.124 180.941 49.6293 202.286 37.3424 203.579C25.0554 204.873 11.1517 195.171 10.9901 179.809C10.6667 158.303 45.7492 106.398 63.533 86.509C71.6165 77.2921 81.1551 70.6625 83.4185 72.1178C86.3285 73.8965 81.1551 85.3771 78.4067 94.1089C73.3949 109.955 55.2878 156.686 55.2878 156.686C55.2878 156.686 77.4366 147.308 81.9634 145.691Z" fill="#263238"/>
<path d="M87.2985 144.397C83.9034 144.559 69.5148 149.571 62.4013 152.644C55.2878 155.716 48.4976 159.273 42.1925 163.639C38.6357 166.065 35.079 168.814 31.6839 171.563C31.5222 171.724 31.6839 171.886 31.8456 171.724C38.1507 167.197 44.7792 163.316 51.5694 159.597C58.3595 156.039 65.1497 152.482 72.2631 149.733C76.3049 148.116 83.2567 145.852 87.2985 144.72C88.2685 144.397 87.4602 144.397 87.2985 144.397Z" fill="#37474F"/>
<path d="M73.0715 112.542C72.1015 113.998 71.2932 115.453 70.4848 117.07C70.4848 117.07 70.4848 117.232 70.3231 117.232C71.4548 113.674 72.5865 110.279 73.5566 106.721C73.5566 106.56 73.2332 106.398 73.2332 106.56C68.0598 119.495 63.3713 132.593 58.8446 145.691C57.5512 149.41 56.4195 153.129 55.2878 156.848C55.2878 157.01 55.4495 157.01 55.4495 156.848C56.9045 153.614 58.1979 150.542 59.4912 147.308C60.7846 144.074 61.9163 140.84 63.2097 137.606C65.3114 131.946 67.4131 126.125 69.3531 120.466C69.9998 119.495 70.6465 118.525 71.1315 117.393C71.9398 115.938 72.5865 114.321 73.3949 112.704C73.3949 112.542 73.0715 112.381 73.0715 112.542Z" fill="#37474F"/>
<path d="M94.5737 173.018C92.957 170.269 91.5019 167.682 89.8852 164.933C88.2685 162.346 86.8135 159.597 85.3585 157.01C83.7418 154.261 82.2867 151.512 80.5084 148.925H80.3467C81.4784 151.674 82.9334 154.422 84.3884 157.01C85.8435 159.759 87.4602 162.507 88.9152 165.256C90.3702 167.844 91.987 170.592 93.6037 173.18C95.2204 175.928 96.9987 178.677 98.9388 181.103C98.9388 181.265 99.2621 181.103 99.1004 180.941C97.6454 178.192 96.1904 175.605 94.5737 173.018Z" fill="#37474F"/>
<path d="M109.932 180.941C108.154 177.384 105.406 173.988 103.304 170.592C103.304 170.431 102.981 170.592 103.142 170.754C105.082 173.988 106.699 177.384 108.477 180.456C100.232 183.852 91.6636 186.762 83.2567 189.835C74.6882 192.907 66.1197 195.817 57.3895 198.243C52.5394 199.698 47.6893 201.154 42.6775 202.447C42.3541 202.447 42.5158 202.771 42.8391 202.771C51.731 201.154 60.2996 198.566 68.8681 195.817C77.5983 193.069 86.1668 189.996 94.7354 186.762C99.5855 184.984 110.094 181.265 109.932 180.941Z" fill="#37474F"/>
<path d="M95.7054 141.81C84.3885 144.721 71.6165 149.41 65.7963 151.674C65.6347 151.674 65.473 151.835 65.3113 151.835C60.1379 153.776 57.0661 155.393 56.2578 155.393C56.2578 155.393 56.0961 155.393 56.0961 155.231C55.6111 154.908 54.9644 154.584 54.4794 154.423C53.0244 153.938 39.2824 152.159 39.6057 147.955C39.9291 143.75 45.5875 143.912 46.3959 144.074C45.4258 143.912 37.989 142.133 40.4141 138.414C42.1924 135.827 49.6293 136.151 50.276 136.151C49.4676 135.827 42.6775 133.725 44.9408 129.844C46.5576 127.095 54.9644 127.419 55.9345 127.581C55.1261 127.257 48.9826 126.287 51.8927 122.891C53.8327 120.627 69.5148 122.891 76.4666 126.449C86.9752 131.623 95.7054 141.81 95.7054 141.81Z" fill="#EB9481"/>
<path d="M65.7962 151.836C65.6345 151.836 65.4729 151.997 65.3112 151.997C62.8862 150.057 53.8326 145.368 46.7192 144.397C46.2342 144.397 46.2342 144.074 46.7192 144.074C55.611 144.397 63.5328 149.572 65.7962 151.836Z" fill="#263238"/>
<path d="M50.7609 136.474C60.6228 138.415 64.9879 140.678 73.5564 146.014C73.7181 146.014 73.8798 145.853 73.7181 145.853C65.7963 139.87 60.9462 136.959 50.9226 136.312C50.4376 136.151 50.2759 136.312 50.7609 136.474Z" fill="#263238"/>
<path d="M56.4194 127.904C65.7963 130.491 70.8081 132.593 78.4066 138.738C78.5683 138.9 78.7299 138.738 78.5683 138.576C71.4548 131.623 65.1496 128.874 56.4194 127.742C55.9344 127.419 55.7728 127.742 56.4194 127.904Z" fill="#263238"/>
<path d="M103.627 89.9046C97.9689 91.845 87.137 84.2451 82.4485 77.6155C82.1252 77.1304 82.2869 71.956 82.1252 65.488C82.1252 61.6073 81.8019 57.4031 81.4785 53.3606L106.699 56.5946C106.699 56.5946 105.244 65.0029 106.052 71.7943C106.052 72.4411 106.214 72.9262 106.376 73.4113C106.376 73.4113 106.376 73.573 106.376 73.7347C107.346 76.807 109.124 87.9642 103.627 89.9046Z" fill="#EB9481"/>
<path d="M106.537 73.8967C106.537 74.0584 106.699 74.2201 106.699 74.3818C91.6637 73.735 85.8436 67.1053 82.1252 60.799C81.9635 58.3736 81.8018 55.9481 81.6401 53.5226L106.861 56.7566C106.861 56.7566 105.406 65.1649 106.214 71.9563C106.214 72.6031 106.376 73.0882 106.537 73.5733C106.537 73.5733 106.537 73.735 106.537 73.8967Z" fill="#263238"/>
<path d="M71.2932 27.1654C69.9998 36.2206 78.245 60.4754 85.1968 65.1647C95.3821 71.9561 110.094 70.5008 115.268 58.8585C120.441 47.5395 109.124 16.0082 101.526 11.9657C90.2086 5.82116 73.2332 13.7444 71.2932 27.1654Z" fill="#EB9481"/>
<path d="M94.5736 37.999C94.5736 37.999 94.412 38.1607 94.5736 38.1607C95.2203 39.7777 95.5437 41.7181 94.2503 42.85V43.0117C96.0287 42.0415 95.382 39.4543 94.5736 37.999Z" fill="#263238"/>
<path d="M92.4719 36.8673C89.7236 37.5141 91.3403 42.8501 93.7653 42.2033C96.352 41.5565 94.7353 36.2205 92.4719 36.8673Z" fill="#263238"/>
<path d="M104.597 35.0887C104.597 35.0887 104.759 35.0887 104.759 35.2504C105.244 36.8674 105.891 38.8078 107.669 38.9695V39.1312C105.729 39.1312 104.759 36.7057 104.597 35.0887Z" fill="#263238"/>
<path d="M105.568 32.8251C108.155 31.8549 109.934 37.1909 107.508 37.9994C105.245 38.9696 103.467 33.6336 105.568 32.8251Z" fill="#263238"/>
<path d="M89.7236 34.927C90.3703 34.6036 91.0169 34.1185 91.6636 33.6334C92.3103 33.1483 92.957 32.8249 93.2803 31.8547C93.442 31.3697 93.1187 30.7229 92.6337 30.5612C91.6636 30.0761 90.5319 30.5612 89.7236 31.0463C88.7536 31.6931 88.2686 32.5015 87.7836 33.4717C87.4602 34.7653 88.7536 35.5738 89.7236 34.927Z" fill="#263238"/>
<path d="M106.861 29.5908C106.052 29.7525 105.406 29.5908 104.597 29.5908C103.789 29.5908 102.981 29.7525 102.172 29.2674C101.687 28.944 101.687 28.2972 101.849 27.8122C102.334 26.842 103.466 26.5186 104.436 26.5186C105.567 26.5186 106.537 26.6803 107.346 27.327C108.477 27.9738 107.992 29.4291 106.861 29.5908Z" fill="#263238"/>
<path d="M98.4538 53.5224C98.9388 53.8458 99.5855 54.1691 100.071 54.1691C100.717 54.0074 101.202 53.5224 101.687 53.199H101.849C101.526 54.0075 100.879 54.6542 100.071 54.6542C99.2621 54.8159 98.6154 54.1692 98.4538 53.5224C98.1304 53.5224 98.2921 53.3607 98.4538 53.5224Z" fill="#263238"/>
<path d="M98.6154 48.0247C99.9088 49.1566 101.526 49.6417 103.142 49.48C103.789 49.48 104.597 49.3182 105.244 48.9949C105.406 48.9949 105.567 48.8332 105.567 48.8332C105.729 48.8332 105.729 48.6715 105.891 48.6715C106.052 48.5098 106.214 48.3481 106.052 48.1864V48.0247V47.863C105.729 46.5694 105.082 44.629 105.082 44.629C105.567 44.7907 108.316 45.1141 108.154 44.4673C106.214 38.9695 104.112 32.9866 101.04 27.974C100.879 27.8123 100.717 27.974 100.717 28.1357C102.334 33.4717 104.921 38.4844 106.699 43.6588C105.891 43.6588 104.436 43.4971 103.789 43.6588C103.627 43.8205 105.244 47.3779 105.244 47.863C103.142 48.8332 101.364 48.5097 98.9388 47.7013C98.6154 47.7013 98.6154 47.863 98.6154 48.0247Z" fill="#263238"/>
<path opacity="0.2" d="M73.8799 44.3056C75.335 43.1737 77.1133 37.1909 77.9217 34.6037C78.73 32.0165 76.1433 21.6677 75.335 18.5955C73.2333 21.0209 71.7782 23.9315 71.1316 27.1655C70.6465 31.0463 71.7782 37.676 73.8799 44.3056Z" fill="#263238"/>
<path d="M97.8071 21.5061C96.6754 24.0933 94.0887 26.0337 91.3403 26.3571C88.5919 26.6805 85.3585 25.5486 83.5801 23.2848H83.4185C85.1968 25.7103 88.1069 27.3273 91.3403 27.0039C94.2504 26.5188 96.9988 24.4167 97.9688 21.6678C97.9688 21.5061 97.8071 21.5061 97.8071 21.5061Z" fill="#263238"/>
<path d="M83.7419 4.20398C79.0534 5.65927 75.6584 9.37835 74.85 13.0974C74.365 15.3612 74.85 17.3016 75.6584 19.242H75.82C74.6883 16.1697 75.1733 12.1272 77.9217 9.05495C80.5085 5.98267 84.7119 4.20397 88.7537 4.52737C90.8554 4.68907 92.7954 5.49758 94.0888 6.79117C94.2504 6.95287 94.5738 6.79116 94.4121 6.62946C92.3104 3.71888 87.9453 2.91038 83.7419 4.20398Z" fill="#263238"/>
<path d="M113.651 6.46792C112.196 4.36583 110.094 2.91055 107.669 2.26376C104.274 1.29356 101.202 2.42545 98.1305 3.71904C97.9688 3.71904 98.1305 3.88075 98.1305 3.88075C100.717 2.91055 103.466 1.94034 106.376 2.42544C108.639 2.91054 110.902 4.20415 112.357 5.98285C115.429 9.86363 115.268 15.8465 111.872 19.4039C109.932 21.3443 107.022 22.4762 104.274 22.4762C104.112 22.4762 104.112 22.6379 104.274 22.6379C109.447 22.9613 114.459 19.2422 115.268 14.0678C115.591 11.4806 115.106 8.57001 113.651 6.46792Z" fill="#263238"/>
<path d="M71.1315 32.3409C71.1315 32.3409 64.3413 25.2262 66.7664 19.405C68.0597 16.0094 75.1732 14.5541 75.1732 14.5541C75.1732 14.5541 76.3049 9.8648 81.64 6.95422C87.1369 4.04364 94.897 5.49894 94.897 5.49894C94.897 5.49894 99.5855 0.809674 105.567 2.26496C113.974 4.36705 116.076 15.5243 109.932 21.1837C105.567 25.0645 97.3221 22.4773 97.3221 22.4773C96.6754 22.8007 91.017 28.7836 84.2268 24.0943C84.2268 24.0943 81.1551 28.9453 76.6283 27.49C76.4666 27.49 75.6582 31.6941 71.1315 32.3409Z" fill="#263238"/>
<path d="M79.5384 46.7311C79.5384 46.7311 72.5866 39.6163 69.1915 42.2035C65.7964 44.7907 72.1016 55.7862 76.6283 56.7564C81.1551 57.5649 82.1251 53.3607 82.1251 53.3607L79.5384 46.7311Z" fill="#EB9481"/>
<path d="M71.1315 45.2755C71.1315 45.2755 71.1315 45.4372 71.1315 45.2755C74.3649 46.084 76.4667 48.6712 77.9217 51.4201C76.79 50.4499 75.4967 50.1265 74.2033 51.4201C74.2033 51.4201 74.2033 51.5818 74.3649 51.5818C75.4966 51.0967 76.4667 51.0967 77.4367 52.0669C78.0834 52.7137 78.7301 53.5222 79.2151 54.169C79.3767 54.4924 79.8617 54.169 79.7001 53.8456C79.2151 49.8031 75.335 44.9521 71.1315 45.2755Z" fill="#263238"/>
<path d="M106.376 73.2497L101.041 88.1261L82.2868 70.5009L77.4367 76.6454C77.4367 76.6454 96.1905 105.105 96.1905 103.811L101.687 91.0367L110.741 99.445L109.286 77.6156L106.376 73.2497Z" fill="#EBEBEB"/>
<path d="M110.579 88.4492C110.256 84.8918 109.932 81.1727 109.447 77.6153C109.447 77.4536 109.286 77.4536 109.124 77.6153C108.477 81.1727 110.094 94.9171 110.094 98.1511C109.771 97.8277 101.849 90.7129 101.687 90.8746C100.394 92.9767 96.3521 102.194 96.1904 103.002C93.2803 98.4745 81.8017 81.9812 78.4067 77.777C78.245 77.6153 78.0833 77.777 78.245 77.9387C80.8317 82.7897 95.8671 104.942 96.1904 104.781C96.3521 104.942 101.364 93.4618 102.011 91.3597C103.304 92.9767 111.387 100.9 111.387 100.253C111.387 96.6958 111.064 92.1682 110.579 88.4492Z" fill="#263238"/>
</svg>
