<svg width="241" height="276" viewBox="0 0 241 276" fill="none" xmlns="http://www.w3.org/2000/svg">
<path d="M235.289 3.05078H45.6872V198.364H235.289V3.05078Z" fill="#8E8E8E"/>
<path d="M0 61.8326V162.153H100.303V61.8326H0ZM7.69097 154.621V69.3647H92.9325V154.621H7.69097Z" fill="#A6A6A6"/>
<path d="M170.804 58.3073C175.771 57.1855 188.589 60.5509 193.075 67.1214C197.401 73.6919 197.241 84.4291 195.158 85.5509C192.915 86.6727 183.462 86.0317 176.892 82.506C170.323 78.9804 168.4 58.9483 170.804 58.3073Z" fill="#263238"/>
<path d="M170.804 58.4677C170.643 58.4677 170.643 58.1472 170.804 58.1472C175.13 57.9869 179.937 59.4292 184.103 60.551C187.467 61.5126 190.992 62.6344 193.716 64.878C196.44 67.1216 197.882 70.1664 198.042 73.6921C198.203 77.5383 197.722 82.1857 195.959 85.7114C195.959 85.8716 195.639 85.7114 195.799 85.7114C197.722 78.3395 199.324 69.5254 191.954 64.7177C185.705 60.2305 177.854 59.7497 170.804 58.4677Z" fill="#263238"/>
<path d="M194.357 83.7879C198.683 84.2687 210.22 92.4418 212.303 100.615C214.386 108.948 207.816 121.288 205.733 122.25C203.65 123.211 193.876 115.359 190.672 109.589C188.589 105.743 190.031 101.096 190.992 96.6085C192.114 89.8777 193.716 83.6277 194.357 83.7879Z" fill="#263238"/>
<path d="M187.788 108.468C186.346 99.9747 190.992 91.6414 193.716 83.949C193.716 83.7888 193.876 83.949 193.876 83.949C192.434 91.3208 188.108 97.8914 188.108 105.584C188.108 110.071 189.711 114.558 193.556 117.282C196.921 119.686 200.927 120.648 204.772 121.93C205.092 122.09 204.932 122.411 204.612 122.25C197.081 120.167 189.23 117.282 187.788 108.468Z" fill="#263238"/>
<path d="M195.319 84.4288C195.158 84.2685 195.319 83.948 195.479 84.1083C201.728 86.9929 209.258 91.1595 212.623 97.4095C216.308 104.14 212.783 111.352 209.739 117.602H209.579C212.623 111.352 215.828 103.499 211.662 96.9288C208.137 91.1595 201.247 87.3134 195.319 84.4288Z" fill="#263238"/>
<path d="M205.092 121.929C202.369 123.692 198.683 129.141 198.203 135.07C197.562 145.166 193.556 143.564 182.981 147.41C174.008 150.615 173.047 161.032 178.495 165.679C178.495 165.679 174.97 159.589 180.898 155.903C187.948 151.416 205.573 157.506 213.104 146.128C222.718 131.544 205.092 121.929 205.092 121.929Z" fill="#263238"/>
<path d="M201.567 127.057C201.728 126.897 201.407 126.737 201.247 126.897C200.125 128.339 199.324 129.782 198.683 131.545C198.042 133.788 198.203 136.032 197.562 138.275C196.12 143.884 189.55 144.365 184.743 145.166C178.334 146.288 173.688 150.775 173.848 157.506C173.848 157.666 174.008 157.666 174.008 157.506C173.848 153.339 176.091 149.173 179.776 147.089C183.301 145.166 187.628 145.487 191.473 144.205C194.037 143.243 196.6 141.961 197.562 139.237C198.042 137.795 198.042 136.032 198.363 134.589C199.004 131.705 199.965 129.301 201.567 127.057Z" fill="#263238"/>
<path d="M206.855 123.051C206.855 123.051 206.695 123.051 206.855 123.051C210.7 126.416 215.027 129.621 216.629 134.75C218.391 140.359 215.988 146.288 211.822 150.134C207.175 154.461 201.728 153.179 196.12 152.698C191.954 152.378 187.948 152.218 184.102 153.98C183.942 153.98 184.103 154.301 184.263 154.141C190.512 152.057 196.44 153.339 202.849 153.66C207.977 153.98 211.822 151.737 214.706 147.57C220.955 138.115 215.507 128.5 206.855 123.051Z" fill="#263238"/>
<path d="M174.649 53.8199C175.931 52.0571 178.815 54.1404 177.373 55.9032C175.931 57.6661 173.207 55.5827 174.649 53.8199Z" fill="#FFC727"/>
<path d="M173.367 56.7047C174.649 54.9418 177.533 57.0252 176.091 58.788C174.649 60.7111 171.925 58.4675 173.367 56.7047Z" fill="#FFC727"/>
<path d="M171.444 59.429C172.726 57.6662 175.61 59.7495 174.168 61.5124C172.887 63.4354 170.163 61.1919 171.444 59.429Z" fill="#FFC727"/>
<path d="M169.362 61.8327C170.643 60.0699 173.527 62.1532 172.085 63.916C170.804 65.6788 168.08 63.5955 169.362 61.8327Z" fill="#FFC727"/>
<path d="M166.798 63.9161C168.08 62.1533 170.964 64.2366 169.522 65.9994C168.24 67.7622 165.516 65.6789 166.798 63.9161Z" fill="#FFC727"/>
<path d="M164.074 65.3586C165.356 63.5958 168.24 65.6791 166.798 67.4419C165.516 69.365 162.792 67.1214 164.074 65.3586Z" fill="#FFC727"/>
<path d="M161.51 97.7304C153.98 107.025 113.762 136.192 79.7938 135.551C68.2573 135.391 36.2117 86.1919 30.2832 67.4418C25.957 53.9803 54.6379 47.2495 62.6493 49.1726C72.7437 51.5764 92.2916 93.8842 96.1371 94.0445C107.674 94.8458 127.542 87.9547 151.736 85.3906C164.394 84.1086 167.279 90.5189 161.51 97.7304Z" fill="#FFB27A"/>
<path d="M31.4048 70.4865C29.3218 65.8391 19.2274 39.8774 18.4263 33.1466C17.6251 26.4158 16.6638 7.02476 21.7911 5.90296C26.9184 4.78116 27.5593 10.3902 27.5593 10.3902C27.5593 10.3902 28.5207 2.05679 33.648 1.41576C38.7753 0.774733 39.7367 9.58887 39.7367 9.58887C39.7367 9.58887 41.339 1.09526 46.4663 0.774743C51.7538 0.454229 51.1129 9.42861 51.1129 9.42861C51.1129 9.42861 52.2345 1.73628 56.5607 3.1786C61.8482 5.10168 58.3232 19.2043 59.7652 26.4159C60.0857 28.0184 68.8983 59.589 68.8983 59.589L31.4048 70.4865Z" fill="#FFB27A"/>
<path d="M50.9527 8.78771C48.389 19.2044 49.03 24.1724 52.3948 34.1083C52.3948 34.2685 52.2345 34.4288 52.0743 34.2686C47.9084 24.8134 46.1459 18.5634 50.472 8.62744C50.7925 8.14667 51.1129 8.30694 50.9527 8.78771Z" fill="#263238"/>
<path d="M39.8969 8.78758C38.1344 19.8453 38.7753 25.294 41.4992 35.871C41.4992 36.0313 41.339 36.0313 41.1788 36.0313C37.6537 25.7748 36.0514 19.5248 39.256 8.78758C39.4162 8.30681 39.8969 8.30681 39.8969 8.78758Z" fill="#263238"/>
<path d="M27.5593 10.8712C26.598 21.6084 27.0787 27.6981 31.0844 37.6341C31.2446 37.7943 30.7639 37.9546 30.7639 37.7943C25.7968 27.8584 25.1559 20.4866 27.2389 10.8712C27.3991 10.2301 27.7196 10.2301 27.5593 10.8712Z" fill="#263238"/>
<path d="M75.9483 64.7177C75.9483 64.7177 77.3904 51.4164 76.7495 45.3266C76.1085 39.3971 65.5335 17.9227 60.7266 19.8458C54.6379 22.4099 58.3232 36.0317 60.8868 42.442C60.8868 42.442 46.6265 48.5317 47.1072 58.7882C47.7481 69.3651 75.9483 64.7177 75.9483 64.7177Z" fill="#FFB27A"/>
<path d="M59.2846 21.288C55.4391 27.6983 59.4448 35.8714 61.5278 42.2817C61.688 42.7625 61.3675 43.083 60.8868 43.083C55.1186 45.9676 47.7481 51.8971 46.7867 58.6279C46.7867 58.7882 46.4663 58.7882 46.4663 58.6279C46.4663 51.2561 53.1959 44.8458 59.7652 42.1214C57.6823 35.5509 53.997 27.2175 59.2846 21.288C59.2846 21.1278 59.2846 21.288 59.2846 21.288Z" fill="#263238"/>
<path d="M113.442 90.8394L127.382 123.211C127.382 123.211 148.532 113.115 161.51 100.134C174.329 87.1535 160.068 82.6663 147.57 84.5894C135.073 86.5124 113.442 90.8394 113.442 90.8394Z" fill="#EBEBEB"/>
<path d="M161.51 100.134C148.692 113.115 127.382 123.211 127.382 123.211L123.055 113.436L165.676 88.756C167.439 91.1598 166.477 95.006 161.51 100.134Z" fill="#C7C7C7"/>
<path d="M132.669 118.724C125.779 105.743 121.613 93.4034 120.492 90.8393C120.492 90.6791 120.652 90.6791 120.652 90.8393C121.613 93.4034 128.343 107.186 132.829 118.724C132.99 118.724 132.829 118.724 132.669 118.724Z" fill="#263238"/>
<path d="M129.465 154.782L123.696 198.692H215.507C215.507 198.692 203.33 116.48 183.782 91.1598C174.008 78.4995 160.869 78.82 151.576 88.4354C149.493 90.5187 128.984 119.846 125.459 132.025C122.094 142.602 129.465 154.782 129.465 154.782Z" fill="#EBEBEB"/>
<path d="M156.063 92.9225L150.294 108.467C148.372 113.596 146.609 118.884 144.847 124.173C143.244 129.461 141.161 134.75 141.962 140.038C142.603 145.326 144.526 150.615 147.09 155.262L147.25 155.423V155.583C146.449 162.634 145.487 169.525 144.686 176.416C143.885 183.307 142.924 190.359 141.802 197.25C142.443 190.198 143.084 183.307 143.725 176.256C144.366 169.205 145.007 162.314 145.808 155.262L145.968 155.743C143.084 150.935 141.001 145.487 140.36 139.878C140.04 136.993 140.2 134.109 141.001 131.384C141.642 128.66 142.603 126.096 143.404 123.371C145.167 118.083 147.25 112.955 149.333 107.826C151.576 103.019 153.819 97.8904 156.063 92.9225Z" fill="#263238"/>
<path d="M143.244 113.115C143.084 113.916 143.565 114.557 144.206 114.717C144.847 114.877 145.487 114.397 145.648 113.595C145.808 112.794 145.327 112.153 144.686 111.993C144.045 111.833 143.404 112.313 143.244 113.115Z" fill="#263238"/>
<path d="M137.797 128.339C137.636 129.14 138.117 129.781 138.758 129.941C139.399 130.102 140.04 129.621 140.2 128.82C140.36 128.018 139.879 127.377 139.239 127.217C138.437 127.057 137.797 127.538 137.797 128.339Z" fill="#263238"/>
<path d="M136.995 143.724C136.835 144.525 137.316 145.166 137.957 145.326C138.598 145.487 139.239 145.006 139.399 144.205C139.559 143.403 139.078 142.762 138.437 142.602C137.797 142.442 137.156 142.923 136.995 143.724Z" fill="#263238"/>
<path d="M141.322 156.544C141.161 157.346 141.642 157.987 142.283 158.147C142.924 158.307 143.565 157.826 143.725 157.025C143.885 156.224 143.405 155.583 142.764 155.422C142.123 155.262 141.482 155.743 141.322 156.544Z" fill="#263238"/>
<path d="M139.719 170.487C139.559 171.288 140.04 171.929 140.681 172.089C141.322 172.249 141.962 171.769 142.123 170.967C142.283 170.166 141.802 169.525 141.161 169.365C140.36 169.204 139.719 169.685 139.719 170.487Z" fill="#263238"/>
<path d="M138.117 184.269C137.957 185.07 138.437 185.711 139.078 185.871C139.719 186.031 140.36 185.551 140.52 184.749C140.681 183.948 140.2 183.307 139.559 183.147C138.918 182.987 138.277 183.467 138.117 184.269Z" fill="#263238"/>
<path d="M156.543 246.769C161.19 249.974 168.881 236.032 171.605 233.147C174.329 230.102 175.45 230.263 175.29 232.506L181.379 208.628C178.334 211.032 171.605 216.32 168.08 219.686C163.273 224.173 151.897 243.564 156.543 246.769Z" fill="#FFB27A"/>
<path d="M191.153 94.6854C210.7 110.551 235.536 138.275 240.503 156.384C244.348 170.327 224.801 218.404 219.032 229.782C216.469 234.75 182.981 219.686 181.379 214.077C179.937 208.307 203.33 166.801 203.49 162.474C203.65 157.987 188.429 128.98 178.014 109.269C165.516 85.2303 174.489 81.2238 191.153 94.6854Z" fill="#FFB27A"/>
<path d="M159.908 260.391C162.952 263.756 169.201 259.75 169.201 259.75C169.201 259.75 163.593 266.641 167.919 269.365C172.246 272.09 178.174 266.16 178.174 266.16C178.174 266.16 173.367 272.731 178.014 275.135C182.5 277.539 188.429 272.41 188.429 272.41C188.429 272.41 188.108 274.974 192.114 275.135C197.722 275.455 205.894 266.321 208.938 260.391C211.982 254.622 219.032 231.064 219.994 227.378L182.981 207.186C182.981 207.186 182.34 207.667 181.218 208.468L175.13 232.346C174.97 233.788 170.804 243.083 169.201 245.647C165.837 251.737 156.383 256.705 159.908 260.391Z" fill="#FFB27A"/>
<path d="M169.362 259.429C177.693 253.179 180.257 249.013 183.782 239.397C183.782 239.237 184.103 239.237 184.103 239.397C181.379 249.173 178.975 254.782 169.682 259.91C169.201 260.07 169.041 259.75 169.362 259.429Z" fill="#263238"/>
<path d="M177.854 266.32C185.865 258.949 188.749 254.461 193.236 244.686C193.236 244.526 193.556 244.686 193.556 244.846C189.871 254.782 187.307 260.551 178.334 266.641C177.854 266.961 177.533 266.641 177.854 266.32Z" fill="#263238"/>
<path d="M188.429 272.09C195.799 264.397 199.004 259.59 202.208 249.494C202.208 249.333 202.689 249.333 202.529 249.654C200.286 260.231 196.28 266.321 188.589 272.25C188.268 272.731 187.948 272.571 188.429 272.09Z" fill="#263238"/>
<path d="M187.467 137.955L215.828 116.801C215.828 116.801 201.087 98.5316 185.384 89.0764C169.682 79.6213 168.721 94.5251 173.527 106.224C178.334 117.762 187.467 137.955 187.467 137.955Z" fill="#EBEBEB"/>
<path d="M210.06 112.634C199.004 122.41 187.948 129.141 185.865 130.904C185.705 130.904 185.705 130.743 185.705 130.743C187.948 129.301 199.805 119.525 209.899 112.474C210.06 112.474 210.22 112.634 210.06 112.634Z" fill="#263238"/>
<path d="M182.5 125.936C180.738 122.09 178.495 116.481 176.412 112.634H176.251C177.053 114.878 177.854 116.961 178.815 119.205C178.815 119.045 178.655 119.045 178.655 118.884C178.014 117.923 177.213 116.801 176.412 116C177.052 117.122 177.693 118.243 178.334 119.205C178.815 119.846 179.296 120.487 179.616 121.128C180.097 122.25 181.218 125.134 181.699 126.256C182.5 128.179 186.666 138.916 186.826 138.756C187.147 138.596 188.589 137.474 189.711 136.673C189.871 136.513 189.711 136.352 189.55 136.352C189.07 136.833 187.788 137.634 187.628 137.795C186.666 135.872 186.025 133.788 185.064 131.865C184.263 129.782 183.301 127.859 182.5 125.936Z" fill="#263238"/>
<path d="M170.643 85.0693C170.162 86.6719 161.67 96.9283 154.139 96.2873C151.736 95.9668 152.537 82.6655 152.537 82.6655L152.377 81.7039L149.973 67.6013L166.797 57.9859L169.201 56.7039C169.201 56.7039 169.521 60.55 170.002 65.518C170.002 65.6782 170.002 65.9987 170.002 66.159C170.002 66.4795 170.002 66.6398 170.162 66.9603C170.162 67.7616 170.322 68.4026 170.322 69.2039C170.322 69.8449 170.482 70.3257 170.482 70.9667C170.482 71.6077 170.482 72.0885 170.643 72.7295C170.963 78.3385 170.803 84.4283 170.643 85.0693Z" fill="#FFB27A"/>
<path d="M170.002 65.3583C165.356 76.2558 156.383 80.2623 152.217 81.5443L149.814 67.4417L166.638 57.8263L169.041 56.5442C169.201 56.5442 169.682 60.5506 170.002 65.3583Z" fill="#263238"/>
<path d="M132.349 42.7622C127.221 67.2816 141.322 73.0508 146.609 74.1726C151.416 75.1341 167.919 77.8585 175.45 54.1405C182.981 30.2622 173.207 20.166 162.472 17.2814C151.576 14.3968 137.316 18.2429 132.349 42.7622Z" fill="#FFB27A"/>
<path d="M140.52 36.9929C141.161 36.9929 141.642 36.9929 142.283 36.9929C142.924 36.9929 143.404 36.9929 144.045 36.5122C144.366 36.3519 144.366 35.7109 144.206 35.3904C143.725 34.7494 142.924 34.5891 142.123 34.5891C141.322 34.5891 140.52 34.7494 139.879 35.3904C139.399 35.8712 139.719 36.8327 140.52 36.9929Z" fill="#263238"/>
<path d="M157.344 40.6788C156.703 40.5186 156.223 40.1981 155.742 40.0378C155.101 39.7173 154.62 39.7173 154.3 39.0762C154.14 38.7557 154.14 38.275 154.46 37.9544C155.101 37.4737 155.902 37.4737 156.703 37.7942C157.505 38.1147 158.146 38.5955 158.466 39.2365C158.947 40.0378 158.146 40.8391 157.344 40.6788Z" fill="#263238"/>
<path d="M153.018 45.967L153.178 46.1273C152.858 47.7299 152.698 49.8132 153.98 50.6145V50.7748C152.217 50.1337 152.377 47.5696 153.018 45.967Z" fill="#263238"/>
<path d="M154.94 44.5248C157.664 44.8453 156.863 50.2941 154.299 49.9736C151.736 49.6531 152.697 44.2043 154.94 44.5248Z" fill="#263238"/>
<path d="M155.902 45.0057C156.383 45.3262 156.703 45.9673 157.344 46.1275C157.985 46.2878 158.626 45.807 159.107 45.3262H159.267C159.107 46.448 158.626 47.4095 157.344 47.4095C156.383 47.4095 155.742 46.2878 155.582 45.3262C155.582 45.0057 155.742 44.8455 155.902 45.0057Z" fill="#263238"/>
<path d="M142.764 43.5632C142.764 43.5632 142.603 43.7235 142.764 43.5632C142.443 45.326 141.962 47.2491 140.36 47.5696V47.7299C142.283 47.7299 142.924 45.326 142.764 43.5632Z" fill="#263238"/>
<path d="M141.482 41.6402C138.758 40.9992 137.796 46.4479 140.36 46.9287C142.764 47.5697 143.725 42.121 141.482 41.6402Z" fill="#263238"/>
<path d="M140.36 41.8005C139.879 41.9608 139.399 42.4416 138.918 42.4416C138.277 42.4416 137.957 41.6403 137.636 40.9993C137.636 40.9993 137.636 40.9993 137.476 40.9993C137.316 41.9608 137.476 43.2428 138.277 43.5634C139.078 43.8839 140.04 43.0826 140.36 42.121C140.681 41.9608 140.52 41.6403 140.36 41.8005Z" fill="#263238"/>
<path d="M149.173 58.7878C148.692 59.1084 148.211 59.5892 147.57 59.5892C146.929 59.5892 146.289 59.2686 145.808 58.9481H145.648C145.968 59.5891 146.929 60.2302 147.731 60.0699C148.692 60.2302 149.173 59.5892 149.173 58.7878C149.493 58.7878 149.333 58.7878 149.173 58.7878Z" fill="#263238"/>
<path d="M143.244 51.5762C143.244 51.5762 142.443 53.9801 142.283 55.2622C142.283 55.4224 142.603 55.4224 142.924 55.5827C145.007 56.2237 147.25 55.9032 148.692 54.4609C148.852 54.3006 148.692 54.1404 148.532 54.3006C146.769 55.2622 145.007 55.2622 143.084 54.9416C143.084 54.6211 144.526 50.775 144.366 50.775C143.725 50.6147 142.443 50.7749 141.642 50.9352C143.084 45.807 145.327 40.839 146.609 35.7108C146.609 35.5505 146.449 35.3903 146.289 35.5505C143.565 40.5185 141.802 46.448 140.2 51.7365C140.2 52.2173 142.764 51.7365 143.244 51.5762Z" fill="#263238"/>
<path d="M150.935 20.3262C150.935 20.3262 149.653 24.0121 150.615 26.7365C152.698 32.5057 159.588 31.7044 161.671 34.1083C163.593 36.3519 162.472 40.5186 164.234 42.7622C166.638 45.807 170.323 45.166 170.643 47.0891C170.964 49.0122 171.605 55.2622 174.008 56.2237C176.412 57.1853 191.473 17.7621 159.427 15.9993C159.427 15.9993 155.261 13.7556 148.051 16.6403C140.2 19.6852 135.714 31.7044 135.714 31.7044C135.714 31.7044 135.874 31.5442 136.995 30.7429C138.598 29.4608 139.399 28.339 140.52 27.5377C142.443 26.2557 143.404 26.8967 145.327 25.7749C148.532 24.0121 150.935 20.3262 150.935 20.3262Z" fill="#263238"/>
<path d="M151.576 18.5635C150.935 20.166 150.455 21.7686 150.134 23.3712C149.814 24.9738 149.814 26.7366 150.294 28.1789C150.935 29.6212 152.217 30.743 153.659 31.384C155.101 32.0251 156.703 32.3456 158.306 33.1469C159.107 33.6276 159.748 34.1084 160.228 34.9097C160.709 35.711 160.869 36.6725 160.869 37.4738C161.03 39.0764 161.19 40.8392 162.151 42.1213C163.113 43.4033 164.555 44.2046 166.317 44.3649C167.919 44.5251 169.682 44.2046 171.284 45.1662C169.682 44.3649 168.08 44.8456 166.317 44.8456C164.555 44.8456 162.952 44.0443 161.831 42.602C160.709 41.1597 160.389 39.3969 160.228 37.7943C160.068 36.993 159.908 36.1918 159.588 35.5507C159.267 34.9097 158.626 34.4289 157.825 34.1084C156.383 33.3071 154.781 32.9866 153.178 32.1853C152.377 31.8648 151.736 31.3841 151.095 30.743C150.455 30.102 149.814 29.461 149.653 28.4994C149.012 26.7366 149.333 24.9738 149.653 23.3712C150.294 21.6084 150.775 20.0058 151.576 18.5635Z" fill="#263238"/>
<path d="M150.935 20.0056C150.455 21.4479 149.814 22.8902 149.013 24.1723C148.211 25.4544 146.93 26.7364 145.487 27.3774C144.686 27.698 143.885 27.8582 143.244 28.0185C142.603 28.1787 141.802 28.4992 141.482 28.98C141.001 29.4608 140.52 30.2621 139.879 30.7429C139.239 31.2236 138.437 31.5441 137.797 31.7044C138.437 31.3839 139.239 31.0634 139.719 30.4223C140.2 29.9416 140.681 29.3005 141.001 28.4992C141.482 27.698 142.283 27.3775 143.084 27.2172C143.885 27.0569 144.526 26.8967 145.167 26.5762C146.449 25.9351 147.57 24.9736 148.532 23.6915C149.333 22.5697 150.134 21.2877 150.935 20.0056Z" fill="#263238"/>
<path d="M168.881 52.6981C168.881 52.6981 175.45 45.8071 178.655 48.2109C181.859 50.6148 176.091 61.1917 171.765 62.1533C167.439 63.1148 166.477 59.1084 166.477 59.1084L168.881 52.6981Z" fill="#FFB27A"/>
<path d="M176.892 51.2557C177.053 51.2557 177.053 51.416 176.892 51.2557C173.848 52.057 171.925 54.6211 170.483 57.1852C171.445 56.2237 172.726 55.9032 174.008 57.025C174.008 57.025 174.008 57.1852 173.848 57.1852C172.726 56.7045 171.765 56.8647 170.804 57.666C170.163 58.307 169.682 59.1083 169.041 59.7493C168.881 59.9096 168.4 59.7493 168.56 59.4288C169.362 55.7429 172.887 51.0955 176.892 51.2557Z" fill="#263238"/>
<path d="M152.217 83.6276L155.742 95.0059L170.643 82.1853L174.168 86.993C174.168 86.993 158.947 108.147 158.947 107.185L155.101 97.2495L148.051 103.339L149.974 86.6725L152.217 83.6276Z" fill="#EBEBEB"/>
<path d="M148.532 95.0057C149.013 92.2813 149.333 89.557 149.814 86.8326C149.814 86.6723 149.974 86.6723 149.974 86.8326C150.294 89.557 148.692 99.9737 148.532 102.538C148.852 102.217 155.101 97.2493 155.101 97.2493C155.902 98.8519 158.786 106.063 158.947 106.704C161.35 103.339 170.483 91.1595 173.367 88.1147C173.367 87.9544 173.527 88.1146 173.527 88.2749C171.284 91.8005 159.107 108.307 158.947 108.147C158.786 108.147 155.422 99.3326 154.941 97.7301C153.819 98.8519 147.41 104.621 147.57 104.301C147.731 101.256 148.211 97.7301 148.532 95.0057Z" fill="#263238"/>
</svg>
