<svg width="245" height="226" viewBox="0 0 245 226" fill="none" xmlns="http://www.w3.org/2000/svg">
<path d="M0 15.3103V75.0352H59.7143V15.3103H0ZM4.54677 70.4876V19.7063H55.3191V70.4876H4.54677Z" fill="#EBEBEB"/>
<path d="M245 0H42.3785V187.12H245V0Z" fill="#584B9B"/>
<path d="M180.052 92.619C204.756 117.631 235.826 170.383 230.067 180.994C223.55 192.817 189.146 157.801 189.297 155.679C189.449 154.163 177.324 122.178 168.079 98.834C158.986 75.6414 173.99 86.404 180.052 92.619Z" fill="#F7A9A0"/>
<path d="M189.146 155.831C188.085 152.344 171.565 110.203 166.867 96.8636C162.168 83.5241 166.564 79.4312 179.901 91.5581C193.39 103.837 222.792 144.613 229.461 166.29C235.978 187.209 225.217 187.209 210.97 177.507C199.603 169.625 189.146 155.831 189.146 155.831Z" fill="#FFC727"/>
<path opacity="0.1" d="M177.627 92.9224C177.476 93.8319 177.173 94.7414 176.718 95.6509C176.263 96.5604 175.809 97.3184 175.202 98.0763C175.354 97.1668 175.657 96.2573 176.112 95.3477C176.566 94.4382 177.021 93.6803 177.627 92.9224ZM218.397 150.98C218.094 151.889 217.639 152.647 217.487 153.708C218.094 152.95 218.548 152.192 219.003 151.283C219.306 150.373 219.761 149.616 219.912 148.554C219.155 149.312 218.7 150.07 218.397 150.98ZM203.847 128.848C203.544 129.758 203.089 130.516 202.938 131.577C203.544 130.819 203.999 130.061 204.453 129.151C204.756 128.242 205.211 127.484 205.363 126.423C204.605 127.181 204.15 127.939 203.847 128.848ZM188.691 123.24C187.782 122.936 187.024 122.482 185.963 122.33C186.721 122.936 187.479 123.391 188.388 123.846C189.297 124.149 190.055 124.604 191.116 124.755C190.358 124.149 189.449 123.694 188.691 123.24ZM202.331 145.674C201.422 145.371 200.664 144.916 199.603 144.765C200.361 145.371 201.119 145.826 202.028 146.281C202.938 146.584 203.695 147.039 204.756 147.19C203.999 146.584 203.089 146.129 202.331 145.674ZM191.268 107.323C190.358 107.02 189.6 106.565 188.54 106.414C189.297 107.02 190.055 107.475 190.965 107.929C191.874 108.233 192.632 108.687 193.693 108.839C192.935 108.081 192.025 107.626 191.268 107.323ZM182.78 137.185C183.083 138.095 183.538 138.853 184.144 139.762C184.144 138.853 183.841 137.943 183.538 137.034C183.235 136.124 182.78 135.366 182.174 134.457C182.174 135.366 182.477 136.276 182.78 137.185ZM211.273 163.865C211.577 164.774 212.031 165.532 212.637 166.442C212.637 165.532 212.334 164.623 212.031 163.713C211.728 162.803 211.273 162.046 210.667 161.136C210.667 162.197 210.97 162.955 211.273 163.865ZM192.025 159.469C192.177 159.62 192.329 159.923 192.48 160.075C193.238 159.772 194.147 159.317 194.753 158.862C193.844 158.862 192.935 159.165 192.025 159.469ZM225.975 175.385C226.884 175.082 227.642 174.627 228.551 174.021C227.642 174.021 226.732 174.324 225.823 174.627C224.914 174.93 224.156 175.385 223.247 175.991C224.156 175.991 225.065 175.688 225.975 175.385ZM175.202 113.538C174.596 113.841 173.99 113.993 173.384 114.448C173.384 114.599 173.535 114.751 173.535 114.751C174.141 114.599 174.748 114.448 175.505 114.296C176.415 113.993 177.173 113.538 178.082 112.932C177.021 112.932 176.112 113.235 175.202 113.538Z" fill="black"/>
<path d="M186.115 186.754H92.148C92.148 186.754 107.001 113.083 143.072 81.25C147.467 77.3088 157.622 78.2183 164.139 81.4016C166.412 82.6143 174.899 94.2864 177.324 105.352C179.749 116.57 186.418 186.451 186.115 186.754Z" fill="#FFC727"/>
<path d="M178.234 110.051C178.991 112.477 179.598 115.054 180.052 117.631C180.052 117.479 180.052 117.479 180.052 117.328C180.052 115.812 180.052 114.447 180.204 112.932C180.204 112.78 180.355 112.78 180.355 112.932C180.507 114.296 180.507 115.963 180.507 117.328C180.507 118.086 180.355 118.692 180.355 119.45C180.507 120.663 180.658 121.724 180.81 122.936C181.113 125.058 181.871 133.244 181.871 134.912C181.871 135.215 181.416 135.366 181.416 134.912C180.962 133.244 179.749 124.907 179.446 122.633C178.688 118.54 178.234 114.144 177.93 109.9C177.93 109.9 178.082 109.9 178.234 110.051Z" fill="#263238"/>
<path opacity="0.1" d="M148.983 100.502C148.831 101.411 148.528 102.321 148.073 103.23C147.619 104.14 147.164 104.898 146.558 105.656C146.709 104.746 147.012 103.837 147.467 102.927C147.922 102.018 148.376 101.26 148.983 100.502ZM136.403 137.943C136.1 138.853 135.645 139.611 135.494 140.672C136.1 139.914 136.555 139.156 137.009 138.247C137.313 137.337 137.767 136.579 137.919 135.518C137.161 136.276 136.706 137.034 136.403 137.943ZM105.788 151.283C105.485 152.192 105.03 152.95 104.879 154.011C105.485 153.254 105.94 152.496 106.395 151.586C106.698 150.677 107.152 149.919 107.304 148.858C106.698 149.616 106.243 150.373 105.788 151.283ZM128.219 175.234C127.916 176.143 127.461 176.901 127.31 177.962C127.916 177.204 128.371 176.446 128.825 175.537C129.128 174.627 129.583 173.869 129.735 172.808C129.128 173.566 128.674 174.476 128.219 175.234ZM167.473 128.848C167.17 129.758 166.715 130.516 166.564 131.577C167.17 130.819 167.624 130.061 168.079 129.151C168.382 128.242 168.837 127.484 168.988 126.423C168.231 127.181 167.776 128.09 167.473 128.848ZM179.749 154.315C179.446 155.224 178.991 155.982 178.84 157.043C179.446 156.285 179.901 155.527 180.355 154.618C180.659 153.708 181.113 152.95 181.265 151.889C180.659 152.647 180.204 153.557 179.749 154.315ZM149.892 172.657C149.589 173.566 149.134 174.324 148.983 175.385C149.589 174.627 150.044 173.869 150.498 172.96C150.801 172.05 151.256 171.292 151.408 170.231C150.801 170.989 150.347 171.899 149.892 172.657ZM121.247 123.088C120.944 123.997 120.49 124.755 120.338 125.817C120.944 125.059 121.399 124.301 121.854 123.391C122.157 122.482 122.611 121.724 122.763 120.663C122.157 121.421 121.702 122.178 121.247 123.088ZM156.712 114.751C155.803 114.448 155.045 113.993 153.984 113.841C154.742 114.448 155.5 114.902 156.409 115.357C157.318 115.66 158.076 116.115 159.137 116.267C158.379 115.509 157.622 115.054 156.712 114.751ZM162.775 144.916C161.865 144.613 161.107 144.158 160.046 144.007C160.804 144.613 161.562 145.068 162.471 145.523C163.381 145.826 164.139 146.281 165.199 146.432C164.442 145.826 163.532 145.371 162.775 144.916ZM107.455 176.901C106.546 176.598 105.788 176.143 104.727 175.991C105.485 176.598 106.243 177.053 107.152 177.507C108.062 177.811 108.819 178.265 109.88 178.417C109.123 177.81 108.365 177.356 107.455 176.901ZM163.684 183.116C162.775 182.813 162.017 182.358 160.956 182.206C161.714 182.813 162.471 183.268 163.381 183.722C163.532 183.874 163.684 183.874 163.987 184.026C164.442 184.026 165.048 184.026 165.503 184.177C164.896 183.722 164.29 183.419 163.684 183.116ZM128.522 152.496C127.613 152.192 126.855 151.738 125.794 151.586C126.552 152.192 127.31 152.647 128.219 153.102C129.128 153.405 129.886 153.86 130.947 154.011C130.189 153.405 129.432 152.95 128.522 152.496ZM156.712 87.92C155.803 87.6168 155.045 87.1621 153.984 87.0105C154.742 87.6168 155.5 88.0716 156.409 88.5264C157.318 88.8295 158.076 89.2843 159.137 89.4359C158.379 88.8295 157.622 88.3748 156.712 87.92ZM162.926 102.018C163.229 102.927 163.684 103.685 164.29 104.594C164.29 103.685 163.987 102.775 163.684 101.866C163.381 100.956 162.926 100.198 162.32 99.289C162.32 100.198 162.623 101.108 162.926 102.018ZM177.779 171.899C178.082 172.808 178.537 173.566 179.143 174.476C179.143 173.566 178.84 172.657 178.537 171.747C178.234 170.838 177.779 170.08 177.173 169.17C177.173 170.08 177.476 170.989 177.779 171.899ZM137.464 119.601C137.767 120.511 138.222 121.269 138.828 122.178C138.828 121.269 138.525 120.359 138.222 119.45C137.919 118.54 137.464 117.782 136.858 116.873C136.858 117.782 137.161 118.692 137.464 119.601ZM149.134 150.373C149.437 151.283 149.892 152.041 150.498 152.95C150.498 152.041 150.195 151.131 149.892 150.222C149.589 149.312 149.134 148.554 148.528 147.645C148.528 148.554 148.831 149.464 149.134 150.373ZM95.3307 186.451C95.3307 186.602 95.3307 186.754 95.3307 186.906H95.4823C95.4823 186.602 95.3307 186.602 95.3307 186.451ZM121.702 186.299C121.399 185.39 120.944 184.632 120.338 183.722C120.338 184.632 120.641 185.541 120.944 186.451C120.944 186.602 120.944 186.602 121.096 186.754H121.854C121.854 186.602 121.702 186.451 121.702 186.299ZM116.246 164.623C116.549 165.532 117.004 166.29 117.61 167.199C117.61 166.29 117.307 165.38 117.004 164.471C116.701 163.561 116.246 162.803 115.64 161.894C115.791 162.803 115.943 163.713 116.246 164.623ZM138.98 92.1644C139.283 93.0739 139.738 93.8319 140.344 94.7414C140.344 93.8319 140.041 92.9224 139.738 92.0128C139.434 91.1033 138.98 90.3454 138.374 89.4359C138.525 90.3454 138.677 91.2549 138.98 92.1644ZM164.139 163.107C165.048 162.803 165.806 162.349 166.715 161.742C165.806 161.742 164.896 162.046 163.987 162.349C163.078 162.652 162.32 163.107 161.41 163.713C162.471 163.713 163.229 163.41 164.139 163.107ZM139.586 185.845C140.495 185.541 141.253 185.087 142.162 184.48C141.253 184.48 140.344 184.783 139.434 185.087C138.525 185.39 137.767 185.845 136.858 186.451C137.767 186.299 138.677 186.148 139.586 185.845ZM97.7557 165.229C97.7557 165.38 97.6041 165.684 97.6041 165.835C98.0588 165.684 98.5135 165.38 98.8166 165.077C98.5135 165.229 98.2103 165.229 97.7557 165.229ZM119.277 139.308C120.186 139.004 120.944 138.55 121.854 137.943C120.944 137.943 120.035 138.247 119.125 138.55C118.216 138.853 117.458 139.308 116.549 139.914C117.458 139.762 118.368 139.611 119.277 139.308ZM138.98 164.168C139.889 163.865 140.647 163.41 141.556 162.803C140.647 162.803 139.738 163.107 138.828 163.41C137.919 163.713 137.161 164.168 136.252 164.774C137.161 164.774 138.07 164.471 138.98 164.168ZM150.65 128.393C151.559 128.09 152.317 127.636 153.226 127.029C152.317 127.029 151.408 127.332 150.498 127.636C149.589 127.939 148.831 128.393 147.922 129C148.831 129 149.74 128.697 150.65 128.393ZM175.354 114.144C176.263 113.841 177.021 113.386 177.93 112.78C177.021 112.78 176.112 113.083 175.202 113.386C174.293 113.69 173.535 114.144 172.626 114.751C173.687 114.751 174.596 114.599 175.354 114.144ZM131.099 105.959C132.008 105.656 132.766 105.201 133.675 104.594C132.766 104.594 131.856 104.898 130.947 105.201C130.038 105.504 129.28 105.959 128.371 106.565C129.28 106.414 130.189 106.262 131.099 105.959Z" fill="black"/>
<path d="M61.8361 52.2973C61.6846 47.7497 62.5939 26.9824 64.1095 21.3737C65.6251 15.6135 71.2328 -0.454662 75.7796 0.303268C80.3264 1.0612 78.9623 5.91195 78.9623 5.91195C78.9623 5.91195 82.4482 -0.454662 86.8434 0.60644C91.3902 1.66754 89.1168 9.09526 89.1168 9.09526C89.1168 9.09526 93.2089 2.72864 97.4525 4.2445C101.848 5.76037 98.3619 12.8849 98.3619 12.8849C98.3619 12.8849 101.848 6.97305 104.879 9.7016C108.668 13.0365 101.09 23.3443 99.8775 29.711C99.5744 31.2268 96.2401 59.725 96.2401 59.725L61.8361 52.2973Z" fill="#FFB27A"/>
<path d="M98.6651 12.2788C93.0574 19.8581 91.9965 24.1025 91.3902 33.3492C91.3902 33.5008 91.0871 33.5008 91.0871 33.3492C90.9356 24.2541 91.5418 18.6454 98.2104 11.9756C98.6651 11.6724 98.9682 11.824 98.6651 12.2788Z" fill="#263238"/>
<path d="M89.5715 8.4892C84.5701 16.8264 83.206 21.5256 81.842 31.0755C81.842 31.2271 81.5389 31.2271 81.5389 31.0755C82.1451 21.5256 82.7514 15.9169 88.9653 8.33762C89.42 8.03445 89.8746 8.18603 89.5715 8.4892Z" fill="#263238"/>
<path d="M78.9623 6.21523C74.7187 14.704 73.0515 19.7064 72.9 29.2563C72.9 29.4079 72.5969 29.5595 72.5969 29.2563C71.8391 19.5548 73.6578 13.3398 78.6592 6.06364C78.9623 5.60889 79.2655 5.76047 78.9623 6.21523Z" fill="#263238"/>
<path d="M96.0885 65.637C96.0885 65.637 104.727 57.6029 107.607 53.2069C110.638 48.8109 115.64 28.4984 111.396 27.1341C105.788 25.3151 100.484 36.5324 98.665 42.4443C98.665 42.4443 85.631 38.3515 80.1748 45.6276C74.5672 52.6006 96.0885 65.637 96.0885 65.637Z" fill="#FFB27A"/>
<path d="M109.577 26.9824C103.363 29.1046 101.393 36.8355 99.1198 42.4442C98.9682 42.899 98.5135 42.899 98.2104 42.7474C92.6027 41.3831 84.4185 41.0799 79.8718 45.1727C79.7202 45.3243 79.5686 45.1727 79.7202 45.0212C83.9639 40.0188 91.9965 39.7156 98.0589 41.5347C100.332 35.7744 102.757 28.0435 109.577 26.9824C109.729 26.9824 109.729 26.9824 109.577 26.9824Z" fill="#263238"/>
<path d="M148.376 92.1644C142.769 101.866 110.184 132.032 81.6904 137.185C77.9014 137.943 63.2002 134.76 60.0174 125.059C54.5613 107.778 58.9565 71.8519 61.6846 50.3267C62.2908 46.0823 101.242 54.7227 100.332 61.2409C99.2712 68.3654 95.0276 94.4382 95.6338 94.7414C97.9072 95.8025 122.914 85.0399 139.283 81.5534C151.104 79.128 152.62 84.7367 148.376 92.1644Z" fill="#FFB27A"/>
<path d="M56.2285 61.0894L100.787 70.7909C100.787 70.7909 96.6948 93.5288 97.6041 93.3772C98.5135 93.2256 129.583 81.8566 141.708 80.644C153.681 79.4313 153.681 84.7368 147.619 94.7414C141.405 104.595 101.393 137.943 81.6904 137.943C71.6875 137.943 62.2908 131.577 60.4721 128.394C54.8644 118.844 56.2285 61.0894 56.2285 61.0894Z" fill="#455A64"/>
<path d="M56.2285 61.0894L100.787 70.7909C100.787 70.7909 96.6948 93.5288 97.6041 93.3772C98.5135 93.2256 129.583 81.8566 141.708 80.644C153.681 79.4313 153.681 84.7368 147.619 94.7414C141.405 104.595 101.393 137.943 81.6904 137.943C71.6875 137.943 62.2908 131.577 60.4721 128.394C54.8644 118.844 56.2285 61.0894 56.2285 61.0894Z" fill="#FFC727"/>
<path opacity="0.1" d="M120.035 92.771C119.732 93.6805 119.277 94.4384 119.125 95.4996C119.732 94.7416 120.186 93.9837 120.641 93.0742C120.944 92.1647 121.399 91.4067 121.55 90.3456C120.944 91.1036 120.49 92.0131 120.035 92.771ZM84.7216 132.487C84.4184 133.396 83.9638 134.154 83.9638 135.215C84.57 134.457 85.0247 133.699 85.4794 132.79C85.7825 131.88 86.2372 131.122 86.2372 130.061C85.6309 130.819 85.1762 131.729 84.7216 132.487ZM58.5018 105.353C58.0472 106.262 57.744 107.02 57.5925 108.081C58.1987 107.323 58.6534 106.565 59.1081 105.656C59.4112 104.746 59.8659 103.988 60.0174 102.927C59.4112 103.685 58.9565 104.443 58.5018 105.353ZM97.301 105.353C96.8463 106.262 96.5432 107.02 96.3916 108.081C96.9978 107.323 97.4525 106.565 97.9072 105.656C98.2103 104.746 98.665 103.988 98.8166 102.927C98.0588 103.685 97.6041 104.595 97.301 105.353ZM77.7498 116.57C77.4467 117.48 76.9921 118.237 76.8405 119.299C77.4467 118.541 77.9014 117.783 78.3561 116.873C78.6592 115.964 79.1139 115.206 79.2654 114.145C78.6592 114.903 78.2045 115.812 77.7498 116.57ZM79.417 89.2845C79.1139 90.194 78.6592 90.952 78.6592 92.0131C79.2654 91.2551 79.7201 90.4972 80.1748 89.5877C80.4779 88.6782 80.9326 87.9203 80.9326 86.8591C80.3264 87.6171 79.8717 88.375 79.417 89.2845ZM59.7143 68.972C59.4112 69.8815 58.9565 70.6394 58.805 71.7006C59.4112 70.9426 59.8659 70.1847 60.3205 69.2752C60.6237 68.3657 61.0783 67.6077 61.2299 66.5466C60.4721 67.3046 60.0174 68.0625 59.7143 68.972ZM139.738 91.8615C139.434 90.952 138.98 90.194 138.373 89.2845C138.373 90.194 138.677 91.1036 138.98 92.0131C139.283 92.9226 139.738 93.6805 140.344 94.59C140.344 93.6805 140.041 92.771 139.738 91.8615ZM113.366 110.052C113.063 109.142 112.608 108.384 112.002 107.475C112.002 108.384 112.305 109.294 112.608 110.203C112.912 111.113 113.366 111.871 113.972 112.78C113.972 111.871 113.669 110.961 113.366 110.052ZM93.512 89.5877C93.2089 88.6782 92.7542 87.9203 92.148 87.0107C92.148 87.9203 92.4511 88.8298 92.7542 89.7393C93.0573 90.6488 93.512 91.4067 94.1182 92.3162C94.1182 91.4067 93.8151 90.4972 93.512 89.5877ZM90.9355 119.299C90.6324 118.389 90.1777 117.631 89.5715 116.722C89.5715 117.631 89.8746 118.541 90.1777 119.45C90.4808 120.36 90.9355 121.118 91.5417 122.027C91.5417 121.118 91.2386 120.208 90.9355 119.299ZM65.6251 116.115C65.322 115.206 64.8673 114.448 64.2611 113.538C64.2611 114.448 64.5642 115.357 64.8673 116.267C65.1704 117.176 65.6251 117.934 66.2314 118.844C66.2314 117.934 65.9282 117.025 65.6251 116.115ZM73.6577 74.1259C73.3546 73.2164 72.9 72.4585 72.2937 71.549C72.2937 72.4585 72.5968 73.368 72.9 74.2775C73.2031 75.187 73.6577 75.945 74.264 76.8545C74.1124 75.945 73.9609 75.0354 73.6577 74.1259ZM70.6266 97.9249C70.3234 97.0154 69.8688 96.2575 69.2625 95.348C69.2625 96.2575 69.5656 97.167 69.8688 98.0765C70.1719 98.986 70.6266 99.744 71.2328 100.653C71.2328 99.744 70.9297 98.8344 70.6266 97.9249ZM130.796 105.201C129.886 105.504 129.128 105.959 128.219 106.565C129.128 106.565 130.038 106.262 130.947 105.959C131.856 105.656 132.614 105.201 133.524 104.595C132.614 104.595 131.705 104.898 130.796 105.201ZM83.8122 104.14C82.9029 104.443 82.1451 104.898 81.2357 105.504C82.1451 105.504 83.0544 105.201 83.9638 104.898C84.8731 104.595 85.6309 104.14 86.5403 103.534C85.4794 103.534 84.57 103.837 83.8122 104.14ZM88.2074 76.0965C87.2981 76.3997 86.5403 76.8545 85.6309 77.4608C86.5403 77.4608 87.4496 77.1576 88.359 76.8545C89.2683 76.5513 90.0261 76.0965 90.9355 75.4902C90.0261 75.6418 89.1168 75.7934 88.2074 76.0965ZM62.8971 84.8885C61.9877 85.1917 61.2299 85.6465 60.3205 86.2528C61.2299 86.2528 62.1393 85.9496 63.0486 85.6465C63.958 85.3433 64.7158 84.8885 65.6251 84.2822C64.7158 84.2822 63.8064 84.5854 62.8971 84.8885ZM105.03 122.937C104.121 123.24 103.363 123.695 102.454 124.301C103.363 124.301 104.273 123.998 105.182 123.695C106.091 123.391 106.849 122.937 107.759 122.33C106.698 122.33 105.788 122.633 105.03 122.937ZM71.0812 130.213C70.1719 130.516 69.4141 130.971 68.5047 131.577C69.4141 131.577 70.3234 131.274 71.2328 130.971C72.1422 130.668 72.9 130.213 73.8093 129.606C72.9 129.758 71.9906 129.91 71.0812 130.213ZM107.607 92.6194C106.698 92.9226 105.94 93.3773 105.03 93.9837C105.94 93.9837 106.849 93.6805 107.759 93.3773C108.668 93.0742 109.426 92.6194 110.335 92.0131C109.426 92.0131 108.516 92.3162 107.607 92.6194Z" fill="black"/>
<path d="M97.9072 93.5288C97.6041 96.8637 96.8463 100.35 96.0885 103.534C95.3307 106.868 94.2698 110.203 93.3604 113.387H93.2089C94.1182 110.052 94.7245 106.717 95.4823 103.382C96.2401 100.047 96.6947 96.7121 97.6041 93.3772C97.6041 93.2257 97.9072 93.3772 97.9072 93.5288Z" fill="#263238"/>
<path d="M98.2103 79.1281C93.0573 77.9154 87.9043 76.8543 82.5997 75.7932C77.4467 74.7321 72.1422 73.8226 66.8376 72.9131C63.8064 72.4583 60.9268 71.852 57.8956 71.5488C57.744 71.5488 57.744 71.7004 57.8956 71.7004C63.0486 72.9131 68.2016 73.9742 73.5062 75.0353C78.6592 76.0964 83.9638 77.0059 89.2683 77.9154C92.2995 78.3702 95.1791 78.9765 98.2103 79.2797C98.2103 79.4313 98.3619 79.1281 98.2103 79.1281Z" fill="#263238"/>
<path d="M112.912 124.604C113.669 123.846 114.579 123.24 115.488 122.633C116.397 122.027 117.155 121.269 118.065 120.663C119.732 119.298 121.55 118.086 123.218 116.722C126.703 113.993 130.038 111.264 133.372 108.687C135.342 107.172 137.161 105.656 139.131 103.988C139.283 103.988 139.283 103.988 139.283 104.14C137.01 106.262 134.585 108.536 132.16 110.658C132.463 110.506 132.766 110.355 133.069 110.203C133.978 109.749 134.888 109.294 135.797 108.687C135.949 108.687 135.949 108.687 135.797 108.839C134.888 109.445 134.13 110.052 133.069 110.506C132.614 110.81 132.16 110.961 131.705 111.264C131.553 111.416 131.25 111.416 131.099 111.568C130.492 112.022 130.038 112.477 129.432 112.932C126.097 115.66 122.611 118.237 119.126 120.814C118.216 121.572 117.155 122.179 116.246 122.937C115.185 123.391 114.124 124.149 112.912 124.604C112.912 124.756 112.76 124.756 112.912 124.604Z" fill="#263238"/>
<path d="M157.167 103.685L162.32 95.8027L167.17 102.473L165.199 108.384H159.592L157.167 103.685Z" fill="#263238"/>
<path d="M159.592 108.385L150.347 169.777L159.743 191.302L168.231 169.019L165.199 108.385H159.592Z" fill="#263238"/>
<path d="M164.139 95.1963C158.682 96.5606 149.437 88.2234 145.648 81.5536C145.345 81.0988 146.103 76.2481 146.558 70.3362C146.861 66.6982 147.164 62.7569 147.164 58.9673L170.352 64.4244C170.352 64.4244 168.079 72.1553 168.231 78.6735C168.231 79.2798 168.231 79.7346 168.382 80.1893C168.382 80.1893 168.382 80.3409 168.382 80.4925C168.837 83.3726 169.443 93.9836 164.139 95.1963Z" fill="#FFB27A"/>
<path d="M148.831 59.4221C149.589 64.2729 152.772 80.341 166.109 80.6442C167.018 80.6442 167.776 80.6442 168.534 80.4926C168.534 80.341 168.534 80.341 168.534 80.1894C168.382 79.7346 168.382 79.2799 168.382 78.6735C168.231 72.3069 170.504 64.576 170.504 64.576L148.831 59.4221Z" fill="#263238"/>
<path d="M141.859 33.1978C140.041 41.5351 146.558 64.8793 152.772 69.5785C161.865 76.3999 175.657 75.9451 181.265 65.3341C186.721 55.0262 177.779 24.8606 170.807 20.6162C160.804 14.4012 144.436 20.7678 141.859 33.1978Z" fill="#FFB27A"/>
<path d="M162.471 46.9917L162.32 47.1433C162.775 48.6591 163.078 50.4782 161.865 51.3877V51.5393C163.684 50.7813 163.229 48.356 162.471 46.9917Z" fill="#263238"/>
<path d="M160.653 45.7791C158.076 46.2339 159.289 51.3878 161.562 50.933C163.987 50.4783 162.775 45.3244 160.653 45.7791Z" fill="#263238"/>
<path d="M172.02 44.5664C172.02 44.5664 172.171 44.5664 172.171 44.718C172.474 46.3854 173.081 48.0529 174.596 48.2045V48.3561C172.777 48.5076 172.02 46.2339 172.02 44.5664Z" fill="#263238"/>
<path d="M172.929 42.596C175.354 41.8381 176.87 46.8404 174.445 47.5983C172.323 48.3563 170.959 43.3539 172.929 42.596Z" fill="#263238"/>
<path d="M158.076 43.8085C158.682 43.5054 159.289 43.0506 159.895 42.5958C160.653 42.1411 161.259 41.8379 161.562 41.08C161.714 40.6252 161.411 40.0189 161.107 39.8673C160.198 39.4125 159.137 39.7157 158.379 40.1705C157.47 40.7768 156.864 41.3832 156.561 42.4443C156.106 43.5054 157.318 44.2633 158.076 43.8085Z" fill="#A6A6A6"/>
<path d="M174.445 39.5642C173.687 39.5642 173.081 39.5642 172.323 39.5642C171.565 39.5642 170.807 39.5642 170.201 39.1095C169.898 38.8063 169.746 38.1999 169.898 37.7452C170.504 36.8357 171.413 36.6841 172.474 36.6841C173.535 36.6841 174.445 36.9873 175.202 37.5936C175.96 38.1999 175.354 39.5642 174.445 39.5642Z" fill="#A6A6A6"/>
<path d="M164.896 61.5442C165.351 61.8473 165.806 62.3021 166.412 62.1505C167.018 61.9989 167.624 61.6957 168.079 61.3926H168.231C167.928 62.1505 167.17 62.6053 166.412 62.7569C165.654 62.7569 165.048 62.3021 164.896 61.5442C164.745 61.5442 164.896 61.5442 164.896 61.5442Z" fill="#263238"/>
<path d="M165.503 56.3902C166.715 57.6029 168.231 58.0577 169.595 57.9061C170.201 57.9061 170.959 57.7545 171.565 57.6029C171.717 57.6029 171.868 57.6029 171.868 57.4513C172.02 57.4513 172.02 57.2998 172.171 57.2998C172.323 57.2998 172.474 56.9966 172.474 56.845V56.6934V56.5418C172.171 55.3291 171.717 53.5101 171.717 53.5101C172.171 53.6617 174.748 54.1165 174.596 53.5101C173.081 48.3562 171.413 42.5959 168.837 37.7452C168.685 37.5936 168.534 37.7452 168.534 37.8967C169.746 42.8991 171.868 47.7498 173.232 52.7522C172.474 52.6006 171.11 52.449 170.504 52.6006C170.353 52.7522 171.565 56.0871 171.717 56.6934C169.746 57.4513 168.079 57.1482 165.806 56.2387C165.503 56.2387 165.351 56.3902 165.503 56.3902Z" fill="#263238"/>
<path d="M170.807 57.4512C170.807 57.4512 170.049 59.1187 168.534 59.8766C168.079 60.1798 167.473 60.3314 166.867 60.3314C165.503 60.1798 165.351 59.1187 165.351 58.0576C165.351 57.1481 165.654 56.3901 165.654 56.3901C165.654 56.3901 167.776 57.7544 170.807 57.4512Z" fill="#263238"/>
<path d="M168.534 59.8764C168.079 60.1796 167.473 60.3312 166.867 60.3312C165.503 60.1796 165.351 59.1185 165.351 58.0574C166.715 57.9058 168.231 58.5122 168.534 59.8764Z" fill="#FFB27A"/>
<g opacity="0.2">
<path opacity="0.2" d="M164.896 36.0779C165.806 35.9263 166.563 35.9264 167.473 35.7748C168.231 35.6232 169.14 35.1684 169.898 35.0168C171.413 34.7137 173.081 34.8652 174.748 35.0168C174.899 35.0168 174.899 35.1684 174.748 35.1684C173.081 35.0168 171.262 35.0168 169.746 35.6232C168.382 36.0779 167.17 36.5327 165.654 36.5327C162.471 36.8359 159.289 37.4422 156.712 39.4128C158.986 37.2906 162.017 36.3811 164.896 36.0779Z" fill="black"/>
<path opacity="0.2" d="M164.442 33.9556C165.199 33.804 166.109 33.804 166.867 33.6524C167.624 33.5009 168.382 33.0461 169.14 32.8945C170.656 32.5913 172.171 32.7429 173.687 32.8945C173.838 32.8945 173.838 33.0461 173.687 33.0461C172.02 32.8945 170.504 32.8945 168.837 33.5009C167.473 33.9556 166.412 34.2588 165.048 34.4104C162.017 34.562 158.986 35.1683 156.712 37.1389C158.834 35.0167 161.562 34.2588 164.442 33.9556Z" fill="black"/>
</g>
<path d="M144.133 53.2071C144.133 53.2071 135.949 39.8676 136.706 32.1367C137.009 28.6502 141.859 26.2248 141.859 26.2248C141.859 26.2248 140.495 21.9804 144.284 18.3423C148.376 14.4011 158.379 15.3106 158.379 15.3106C158.379 15.3106 164.896 5.91229 173.99 9.70194C183.235 13.4916 177.173 23.7994 177.173 23.7994C177.173 23.7994 180.507 28.6502 172.323 32.2883C164.29 35.9263 147.922 32.4398 147.922 32.4398C147.922 32.4398 149.286 40.7771 147.619 49.4175C147.316 52.4492 144.133 53.2071 144.133 53.2071Z" fill="#A6A6A6"/>
<path d="M160.198 15.3106C158.228 14.4011 155.954 14.0979 153.681 14.0979C151.711 14.0979 149.74 14.4011 147.922 15.0074C144.587 16.2201 141.708 18.6455 141.102 22.2835C140.799 24.1026 141.253 25.9216 142.314 27.4375C142.314 27.4375 142.466 27.4375 142.466 27.2859C140.344 24.7089 141.405 20.6161 143.678 18.3423C146.103 15.9169 149.892 14.8558 153.378 14.7042C155.651 14.5527 157.925 15.0074 160.198 15.4622C160.198 15.6138 160.198 15.4622 160.198 15.3106Z" fill="#A6A6A6"/>
<path d="M180.81 13.9462C180.052 11.3693 177.779 9.70182 175.354 8.94389C172.474 8.03437 169.443 8.18595 166.715 9.24706C163.835 10.3082 161.562 12.1272 159.592 14.5526C159.592 14.5526 159.592 14.7042 159.743 14.5526C163.229 10.4597 168.534 8.18595 173.99 9.24706C176.415 9.70182 178.84 10.9145 179.901 13.1883C180.962 15.3105 180.659 17.8875 179.749 20.0097C178.537 22.5866 176.263 24.4057 173.838 25.9215V26.0731C176.112 24.8604 178.234 23.193 179.749 21.0708C180.962 19.1001 181.568 16.3716 180.81 13.9462Z" fill="#A6A6A6"/>
<path d="M148.528 51.9943C148.528 51.9943 142.314 45.0214 139.131 47.2951C135.949 49.5689 141.102 60.18 145.345 61.2411C149.589 62.3022 150.65 58.3609 150.65 58.3609L148.528 51.9943Z" fill="#FFB27A"/>
<path d="M140.798 50.1753C140.647 50.1753 140.647 50.3269 140.798 50.1753C143.83 51.0848 145.497 53.6618 146.861 56.2387C145.952 55.3292 144.739 54.8745 143.375 55.9356C143.375 55.9356 143.375 56.0871 143.527 56.0871C144.739 55.784 145.497 55.784 146.406 56.6935C147.012 57.2998 147.467 58.0578 147.922 58.8157C148.073 59.1189 148.528 58.8157 148.376 58.5125C148.073 54.8745 144.739 50.1753 140.798 50.1753Z" fill="#263238"/>
<path d="M162.017 55.1774C158.834 55.6321 155.651 53.8131 154.439 50.7814C152.923 47.1433 154.742 42.8989 158.379 41.5346C162.017 40.0188 166.26 41.8378 167.624 45.4759C169.14 49.1139 167.321 53.3583 163.684 54.7226C163.229 55.0258 162.623 55.1774 162.017 55.1774ZM160.35 41.9894C159.895 41.9894 159.289 42.141 158.834 42.4442C155.651 43.6568 154.136 47.2949 155.348 50.4782C156.561 53.6615 160.198 55.1774 163.381 53.9647C166.563 52.752 168.079 49.1139 166.867 45.9306C165.806 43.2021 163.078 41.6862 160.35 41.9894Z" fill="#455A64"/>
<path d="M177.93 51.0848C175.202 51.388 172.323 48.9626 171.413 45.3245C170.959 43.5055 170.959 41.6865 171.717 40.1706C172.323 38.5032 173.535 37.4421 174.899 37.1389C176.263 36.8357 177.779 37.1389 179.143 38.3516C180.355 39.4127 181.416 40.9285 181.871 42.8992C182.78 46.6888 181.265 50.4784 178.537 51.0848C178.234 51.0848 178.082 51.0848 177.93 51.0848ZM175.506 38.0484C175.354 38.0484 175.202 38.0484 175.202 38.0484C174.141 38.3516 173.232 39.2611 172.626 40.4738C172.02 41.8381 172.02 43.5055 172.474 45.1729C173.384 48.5078 175.96 50.63 178.234 50.1753C180.507 49.5689 181.719 46.3856 180.962 43.0507C180.507 41.3833 179.749 40.019 178.537 39.1095C177.476 38.2 176.415 37.8968 175.506 38.0484Z" fill="#455A64"/>
<path d="M167.776 46.3859L167.018 45.7796C167.776 44.5669 170.049 42.8994 172.171 44.2637L171.717 45.0216C169.595 43.8089 167.776 46.2343 167.776 46.3859Z" fill="#455A64"/>
<path d="M137.313 55.9354L136.403 55.7838C136.555 55.3291 137.464 51.5394 139.434 50.6299C141.253 49.872 153.984 47.9013 154.59 47.7498L154.742 48.6593C151.104 49.2656 141.253 50.7815 139.889 51.5394C138.525 52.1457 137.616 54.8743 137.313 55.9354Z" fill="#455A64"/>
<path d="M168.382 80.038L161.865 93.3775L146.255 74.884L141.102 80.038C141.102 80.038 155.803 108.536 155.954 107.323L162.32 95.9545L169.898 104.595L170.656 84.1308L168.382 80.038Z" fill="#EBEBEB"/>
<path d="M170.807 94.5902C170.807 91.2553 170.959 87.7688 170.807 84.4339C170.807 84.2823 170.656 84.2823 170.656 84.4339C169.746 87.6172 169.746 100.654 169.595 103.685C169.292 103.382 162.623 95.9544 162.471 96.106C161.107 97.925 156.409 106.111 156.106 106.869C153.833 102.321 144.891 85.9497 142.011 81.5538C141.859 81.4022 141.708 81.5538 141.859 81.7053C143.83 86.4045 155.651 108.688 155.803 108.536C155.954 108.688 161.714 98.5314 162.471 96.5608C163.532 98.0766 170.353 106.262 170.353 105.808C170.656 102.321 170.807 97.925 170.807 94.5902Z" fill="#263238"/>
<path d="M230.067 180.994C224.459 188.876 209.303 190.392 171.565 197.82C166.412 198.881 149.134 163.865 154.742 162.5C161.714 160.833 188.994 155.527 191.116 155.376C208.394 154.315 233.856 175.688 230.067 180.994Z" fill="#FFB27A"/>
<path d="M162.32 160.833C162.32 160.833 146.255 163.258 138.373 167.048C127.613 172.202 120.49 181.145 117.761 185.087C112.002 193.272 103.666 216.92 110.183 220.558C115.943 223.741 123.218 199.184 123.218 199.184C123.218 199.184 111.699 223.135 119.429 225.712C127.158 228.289 133.978 199.184 133.978 199.184C133.978 199.184 122.611 224.044 131.099 225.408C137.464 226.47 145.042 200.548 145.042 200.548C145.042 200.548 135.494 221.922 141.859 223.438C148.983 224.954 157.621 201.458 157.621 201.458C174.596 202.216 183.083 195.698 188.54 190.24C189.6 188.876 162.32 160.833 162.32 160.833Z" fill="#FFB27A"/>
<path d="M126.552 190.695C125.036 193.424 123.672 196.304 122.46 199.184C121.247 202.064 120.186 204.944 119.277 207.976C117.004 215.252 116.7 220.255 116.7 219.951C117.913 212.827 122.005 202.367 123.218 199.487C124.43 196.456 125.491 193.575 126.552 190.695C126.703 190.544 126.552 190.544 126.552 190.695Z" fill="#263238"/>
<path d="M137.009 194.788C135.342 198.426 133.524 201.913 131.856 205.551C130.341 209.189 129.128 212.827 127.916 216.616C127.764 216.92 128.067 216.92 128.067 216.616C129.431 212.978 131.099 209.644 132.614 205.854C134.13 202.216 135.494 198.426 137.009 194.788C137.161 194.788 137.009 194.788 137.009 194.788Z" fill="#263238"/>
<path d="M146.709 196.759C143.83 202.064 141.859 207.976 140.192 213.888C140.041 214.191 140.344 214.04 140.495 213.736C142.617 207.976 144.133 203.429 147.012 196.759C146.861 196.759 146.709 196.607 146.709 196.759Z" fill="#263238"/>
<path d="M158.986 160.833L192.025 197.668C192.025 197.668 225.52 189.937 230.37 181.449C233.553 175.84 208.394 152.95 189.449 155.527L158.986 160.833Z" fill="#FFC727"/>
<path opacity="0.1" d="M188.388 183.874C188.236 184.783 187.933 185.693 187.479 186.602C187.024 187.512 186.569 188.27 185.963 189.028C186.115 188.118 186.418 187.209 186.872 186.299C187.176 185.39 187.63 184.632 188.388 183.874ZM211.273 181.752C210.97 182.661 210.516 183.419 210.364 184.48C210.97 183.722 211.425 182.964 211.88 182.055C212.183 181.145 212.637 180.387 212.789 179.326C212.183 180.084 211.728 180.994 211.273 181.752ZM194.905 174.021C193.996 173.718 193.238 173.263 192.177 173.111C192.935 173.718 193.693 174.172 194.602 174.627C195.511 174.93 196.269 175.385 197.33 175.537C196.572 174.93 195.814 174.476 194.905 174.021ZM211.273 163.865C211.577 164.774 212.031 165.532 212.637 166.442C212.637 165.532 212.334 164.623 212.031 163.713C211.728 162.804 211.273 162.046 210.667 161.136C210.667 162.197 210.97 162.955 211.273 163.865ZM177.779 171.899C178.082 172.808 178.537 173.566 179.143 174.476C179.143 173.566 178.84 172.657 178.537 171.747C178.234 170.838 177.779 170.08 177.173 169.17C177.173 170.08 177.476 170.989 177.779 171.899ZM164.139 163.107C165.048 162.804 165.806 162.349 166.715 161.742C165.806 161.742 164.896 162.046 163.987 162.349C163.078 162.652 162.32 163.107 161.41 163.713C162.471 163.713 163.229 163.41 164.139 163.107ZM192.329 160.075C193.238 159.772 193.996 159.317 194.905 158.711C193.996 158.711 193.086 159.014 192.177 159.317C191.268 159.62 190.51 160.075 189.6 160.681C190.51 160.681 191.419 160.378 192.329 160.075ZM202.786 192.514C203.695 192.211 204.453 191.756 205.363 191.15C204.453 191.15 203.544 191.453 202.635 191.756C201.725 192.06 200.967 192.514 200.058 193.121C200.967 193.121 201.877 192.818 202.786 192.514ZM227.642 174.172C226.884 174.324 226.278 174.476 225.672 174.779C224.762 175.082 224.004 175.537 223.095 176.143C224.004 176.143 224.914 175.84 225.823 175.537C226.429 175.234 227.187 174.93 227.793 174.627C227.793 174.324 227.642 174.172 227.642 174.172Z" fill="black"/>
<path d="M212.183 161.591C209.152 159.317 200.513 154.163 189.449 155.527C189.297 155.527 189.297 155.679 189.449 155.679C197.785 155.527 209 159.772 212.183 161.591C212.183 161.742 212.183 161.591 212.183 161.591Z" fill="#263238"/>
<path d="M201.119 191.605C197.633 187.361 193.996 183.268 190.358 179.326C186.721 175.234 183.083 171.141 179.295 167.2C177.173 164.926 175.051 162.652 172.929 160.53C172.929 160.53 172.777 160.53 172.777 160.681C176.263 164.926 179.749 169.019 183.387 173.111C187.024 177.204 190.661 181.297 194.45 185.238C196.572 187.512 198.694 189.786 200.816 191.908C200.967 191.757 201.119 191.605 201.119 191.605Z" fill="#263238"/>
<path d="M158.834 160.38C160.804 159.773 162.926 159.318 165.048 159.015C167.17 158.561 169.292 158.257 171.262 157.954C175.506 157.348 184.144 155.377 191.874 155.377C192.025 155.377 191.571 155.832 191.419 155.832C187.782 155.68 161.411 160.834 159.289 160.986C159.44 161.137 159.44 161.289 159.592 161.441C159.592 161.592 159.592 161.744 159.44 161.592C159.137 161.441 158.986 161.137 158.682 160.986C158.682 160.834 158.682 160.531 158.834 160.38Z" fill="#263238"/>
</svg>
