<svg width="220" height="281" viewBox="0 0 220 281" fill="none" xmlns="http://www.w3.org/2000/svg">
<path d="M200 52H0V252H200V52Z" fill="#DBDBDB"/>
<path d="M84.931 0.97583V136.069H220V0.97583H84.931ZM212.72 128.787H92.366V8.41214H212.72V128.787Z" fill="#263238"/>
<path d="M65.7239 170.926C66.6533 170.926 70.6806 171.236 76.5666 171.701C78.89 167.983 81.5233 161.476 80.9037 151.871C80.7488 150.322 84.1565 159.462 81.988 172.011C93.4502 172.786 108.94 173.87 122.571 174.645C123.035 169.377 123.81 164.42 123.81 164.42C124.12 168.293 124.739 171.701 125.514 174.8C127.372 174.954 129.231 174.954 130.935 175.109C130.935 166.898 132.949 152.491 132.949 152.491C133.723 162.561 136.511 170.772 138.68 175.574C147.354 176.039 153.085 176.194 152.62 175.729C140.229 160.082 150.142 151.871 147.044 138.548C143.327 122.436 129.696 119.337 130.78 107.563C131.555 97.9577 133.568 80.4514 121.486 76.1136C121.486 76.1136 112.038 64.8042 96.0835 70.0716C76.4117 76.5783 82.7624 106.788 81.0586 112.83C78.7351 121.351 74.553 124.295 70.9904 134.055C67.4278 143.97 71.6099 150.786 71.9197 157.603C72.3844 164.265 63.5554 170.772 65.7239 170.926Z" fill="#263238"/>
<path d="M153.395 173.715C151.846 170.926 150.297 168.138 149.522 165.039C148.593 162.096 149.213 158.997 149.987 155.899C150.762 152.8 151.536 149.702 152.001 146.449C152.465 143.195 152.465 139.787 151.536 136.379C150.607 133.125 148.903 130.027 146.734 127.548C144.566 125.069 142.087 122.9 139.609 120.886C137.131 118.872 134.807 116.703 133.103 114.225C131.245 111.746 130.315 108.647 130.006 105.394C129.696 108.647 130.47 111.901 132.019 114.844C133.723 117.788 136.046 120.112 138.37 122.281C140.693 124.45 143.017 126.618 145.03 128.942C146.889 131.266 148.438 134.055 149.213 136.998C149.987 139.942 150.142 143.04 149.677 145.984C149.368 149.082 148.593 152.181 148.128 155.279C147.819 156.828 147.664 158.533 147.664 160.237C147.664 161.941 147.973 163.645 148.593 165.194C149.522 168.448 151.226 171.236 153.395 173.715Z" fill="#263238"/>
<path d="M84.9309 80.6064C83.227 84.1697 82.4526 88.1977 81.833 92.0708C81.2134 95.9438 80.7487 99.9718 80.284 103.845L79.6644 109.732C79.3547 111.746 79.0449 113.45 78.5802 115.309C77.341 118.718 75.1725 121.816 72.6941 124.914C71.455 126.464 70.3707 128.168 69.2865 129.872C68.3571 131.731 67.4277 133.59 66.8081 135.604C66.3434 137.618 65.8787 139.632 65.7239 141.646C65.569 143.66 65.569 145.674 65.7239 147.843C66.0336 149.857 66.4983 151.871 66.8081 153.73C67.2728 155.589 67.4277 157.603 67.4277 159.462C67.5826 163.18 65.4141 166.899 62.1613 169.222C65.569 167.363 68.3571 163.645 68.6669 159.462C68.8218 157.448 68.6669 155.434 68.512 153.42C68.2022 151.406 67.8924 149.547 67.7375 147.688C67.4277 143.97 68.0473 140.097 69.1315 136.534C69.7511 134.675 70.5256 132.97 71.455 131.421C72.3844 129.717 73.4686 128.323 74.7078 126.774C75.947 125.224 77.0312 123.52 78.1155 121.816C79.1998 120.112 80.1291 118.098 80.5938 116.239C81.2134 114.225 81.5232 112.211 81.6781 110.197C81.833 108.183 81.9879 106.324 82.1428 104.31C82.4526 100.437 82.6075 96.4086 82.9173 92.5355C83.3819 88.3526 83.8466 84.4795 84.9309 80.6064Z" fill="#263238"/>
<path d="M179.572 246.839C179.572 246.529 179.417 246.374 179.417 246.064C179.417 246.374 179.572 246.684 179.572 246.994C179.572 246.839 179.572 246.839 179.572 246.839Z" fill="#FFC727"/>
<path d="M140.693 253.655C140.848 253.81 141.003 253.81 141.158 253.81V253.655C141.158 253.655 141.003 253.655 140.693 253.655C140.848 253.655 140.848 253.655 140.693 253.655Z" fill="#FFC727"/>
<path d="M85.3956 145.209C61.077 172.631 31.492 229.177 38.1525 239.867C45.5875 251.951 80.5939 212.911 79.3547 211.052C78.2704 209.502 89.7327 175.729 98.097 151.096C106.307 126.464 91.4365 138.393 85.3956 145.209Z" fill="#D3766A"/>
<path d="M85.3956 145.209C61.077 172.631 31.492 229.177 38.1525 239.867C45.5875 251.951 80.5939 212.911 79.3547 211.052C78.2704 209.502 89.7327 175.729 98.097 151.096C106.307 126.464 91.4365 138.393 85.3956 145.209Z" fill="#584B9B"/>
<path d="M88.6484 179.447C86.325 186.728 84.1564 193.39 82.4526 198.812C78.7351 198.967 67.7375 198.348 56.2753 187.348C59.683 181.306 63.4005 175.109 67.2728 169.222C70.061 172.321 77.0313 178.208 88.6484 179.447Z" fill="#EBEBEB"/>
<path d="M61.8514 252.416L67.8924 211.051C67.8924 211.051 58.1339 194.01 63.7102 181.616C66.6532 175.419 86.325 145.054 96.8579 137.308C106.771 130.027 120.402 136.688 125.049 142.885C138.37 161.011 144.875 193.39 152.31 252.416H61.8514Z" fill="#584B9B"/>
<path d="M79.6644 156.364C77.6508 159.152 75.6372 161.941 73.7784 164.729C74.2431 163.645 74.8627 162.56 75.3274 161.476C75.3274 161.321 75.1725 161.321 75.1725 161.476C74.398 162.87 73.7784 164.265 73.1588 165.659C70.5256 169.532 68.0473 173.25 65.7238 177.278C64.6396 178.982 63.7102 180.686 63.0906 182.391C62.471 184.095 62.0063 185.954 61.8514 187.813C61.6966 189.672 61.5416 191.531 61.6965 193.39C61.8514 195.404 62.0063 197.263 62.471 199.122C62.9357 201.291 63.5553 203.46 64.4847 205.474C64.9494 206.404 65.4141 207.488 65.8787 208.418C66.3434 209.347 67.2728 211.051 67.2728 211.206C67.1179 212.136 66.963 212.91 66.8081 213.685C66.6532 214.46 66.4983 215.389 66.4983 216.164C66.1885 217.868 64.02 234.445 63.7102 236.149C63.2455 239.557 62.7808 242.966 62.3161 246.374C62.0063 248.388 62.0063 250.247 61.6965 252.261C61.6965 252.416 61.8514 252.416 61.8514 252.261C62.1612 250.557 62.6259 248.853 62.7808 247.148C63.0906 245.444 63.4004 243.74 63.7102 242.036C64.3298 238.628 66.8081 220.347 67.2728 216.938C67.4277 216.009 67.5826 215.079 67.7375 214.15C67.8924 213.22 68.2022 211.981 68.0473 211.051C68.0473 211.051 64.9494 204.854 63.8651 200.517C63.4004 198.658 62.9357 196.798 62.6259 194.939C62.471 193.08 62.471 191.221 62.6259 189.362C62.7808 187.503 63.0906 185.644 63.7102 183.94C64.3298 182.081 65.1043 180.377 66.0336 178.672C68.0473 175.109 70.0609 171.701 72.2295 168.293C74.8627 164.11 77.341 160.237 79.6644 156.364C79.8193 156.364 79.8193 156.209 79.6644 156.364Z" fill="#263238"/>
<path d="M38.1524 239.867C44.3482 247.768 60.1476 248.543 99.8009 254.275C105.222 255.05 121.176 217.713 115.445 216.629C108.165 215.235 79.3546 211.207 77.1861 211.207C59.2182 211.052 33.9702 234.445 38.1524 239.867Z" fill="#D3766A"/>
<path d="M107.546 215.235C107.546 215.235 124.274 216.939 132.794 220.502C144.256 225.305 152.156 234.135 155.253 238.163C161.759 246.374 171.672 270.542 165.167 274.57C159.281 278.288 150.452 253.036 150.452 253.036C150.452 253.036 163.773 277.359 155.873 280.457C147.973 283.556 139.299 253.656 139.299 253.656C139.299 253.656 152.465 278.908 143.791 280.922C137.286 282.471 127.837 255.824 127.837 255.824C127.837 255.824 138.989 277.669 132.329 279.373C125.049 281.387 114.826 257.374 114.826 257.374C97.1676 259.078 88.0288 252.726 82.1427 247.459C80.7487 245.909 107.546 215.235 107.546 215.235Z" fill="#D3766A"/>
<path d="M146.27 244.36C147.973 247.149 149.677 249.937 151.071 252.881C152.465 255.824 153.859 258.768 154.944 261.866C157.732 269.303 158.351 274.415 158.197 274.105C156.493 266.669 151.691 256.134 150.297 253.191C148.903 250.247 147.664 247.304 146.27 244.36C146.115 244.205 146.27 244.205 146.27 244.36Z" fill="#263238"/>
<path d="M135.582 249.163C137.595 252.881 139.609 256.444 141.468 260.162C143.327 263.88 144.721 267.598 146.27 271.472C146.424 271.781 146.115 271.781 146.115 271.472C144.411 267.753 142.552 264.345 140.848 260.627C138.989 256.754 137.441 252.881 135.582 249.163Z" fill="#263238"/>
<path d="M125.668 251.796C128.921 257.219 131.245 263.261 133.413 269.303C133.568 269.613 133.258 269.458 133.103 269.303C130.625 263.416 128.766 258.768 125.514 252.106C125.514 251.796 125.668 251.641 125.668 251.796Z" fill="#263238"/>
<path d="M120.247 215.544L87.5641 253.965C87.5641 253.965 42.9542 250.867 37.8426 239.093C32.7311 227.318 66.6532 210.122 77.1861 211.052C87.719 212.136 120.247 215.544 120.247 215.544Z" fill="#584B9B"/>
<path d="M59.9926 216.319C62.6258 214.615 69.9059 210.432 77.186 211.206C77.3409 211.206 77.3409 211.361 77.186 211.361C71.1451 211.516 62.6258 214.925 59.9926 216.319Z" fill="#263238"/>
<path d="M80.5938 247.304C93.4502 233.67 104.912 217.403 107.081 214.77C107.236 214.615 106.926 214.46 106.926 214.615C104.912 217.403 89.8875 234.445 80.4389 247.149C80.284 247.303 80.4389 247.458 80.5938 247.304Z" fill="#263238"/>
<path d="M46.7487 163.437L32.2815 234.325L86.7657 245.448L101.233 174.561L46.7487 163.437Z" fill="#FFC727"/>
<path d="M87.7941 168.069L61.999 162.772L60.3792 170.664L86.1743 175.96L87.7941 168.069Z" fill="#EBEBEB"/>
<path d="M81.9879 166.898L78.735 166.124L79.5095 162.561L71.7647 161.011L71.1452 164.575L67.8923 163.955L69.2864 157.293L83.3819 160.237L81.9879 166.898Z" fill="#EBEBEB"/>
<path d="M131.709 151.406C157.887 184.87 167.8 244.825 153.24 249.473C139.919 253.81 85.2407 240.022 68.9766 234.445C64.1749 232.741 79.0448 195.559 84.1564 197.263C90.3522 199.432 124.12 207.333 124.894 207.333C126.288 207.333 118.853 170.462 115.6 153.73C110.953 130.647 121.951 138.857 131.709 151.406Z" fill="#D3766A"/>
<path d="M40.321 183.475C37.5329 186.574 39.8563 190.292 39.8563 190.292C39.8563 190.292 36.6035 191.222 35.0546 193.855C33.1958 196.954 37.2231 201.292 37.2231 201.292C37.2231 201.292 34.1252 202.841 32.7311 205.939C31.1822 209.193 34.7448 214.15 34.7448 214.15C34.7448 214.15 32.7312 217.249 33.3507 220.812C34.435 226.854 43.2641 230.417 48.8403 232.586C54.4165 234.91 72.3844 235.994 75.7921 236.614L90.6621 200.827C90.6621 200.827 68.512 183.63 61.5417 181.926C55.6557 180.532 43.4189 179.912 40.321 183.475Z" fill="#D3766A"/>
<path d="M40.3211 189.827C46.9816 189.827 53.1774 191.841 59.3733 193.546C59.5282 193.546 59.5282 193.855 59.3733 193.7C53.1774 191.996 46.5169 191.532 40.3211 190.137C40.1662 190.137 40.1662 189.827 40.3211 189.827Z" fill="#263238"/>
<path d="M37.5329 200.982C39.0818 200.982 40.4759 201.601 41.87 202.066C43.4189 202.531 44.9679 202.996 46.3619 203.615C49.305 204.7 52.4029 205.784 55.3459 207.024C55.5008 207.024 55.5008 207.334 55.3459 207.179C52.4029 206.094 49.305 205.165 46.3619 204.235C44.813 203.77 43.264 203.306 41.7151 202.841C40.321 202.376 38.772 202.066 37.378 201.446C37.2231 201.292 37.2231 200.982 37.5329 200.982Z" fill="#263238"/>
<path d="M34.7448 214.305C35.9839 214.305 37.378 215.08 38.6171 215.39C40.0112 215.854 41.4053 216.474 42.6444 216.939C45.4326 217.868 48.0658 218.953 50.8539 219.727C51.0088 219.727 51.0088 220.037 50.8539 219.882C48.0658 218.953 45.2776 218.178 42.3346 217.249C40.9406 216.784 39.5465 216.319 38.1524 215.854C37.2231 215.545 35.6741 215.235 34.7448 214.305Z" fill="#263238"/>
<path d="M124.274 206.094C124.739 205.784 116.839 170.152 114.206 151.561C111.573 132.97 119.937 134.674 131.864 150.631C144.721 167.673 167.49 213.84 159.591 247.923C156.957 258.923 77.8057 243.43 77.8057 243.43L88.4935 197.883C88.4935 197.883 123.655 206.404 124.274 206.094Z" fill="#584B9B"/>
<path d="M156.648 202.686C143.791 206.404 129.696 204.545 123.965 203.46C123.19 198.968 121.177 189.362 119.163 178.828C132.794 180.377 141.933 178.363 147.044 176.659C150.607 184.56 154.014 193.545 156.648 202.686Z" fill="#EBEBEB"/>
<path d="M88.1837 238.783C92.9854 222.981 95.6186 205.474 96.3931 202.531C96.3931 202.376 96.2382 202.376 96.2382 202.531C95.7735 205.474 90.5071 224.995 88.0288 238.783C87.8739 238.938 88.1837 238.938 88.1837 238.783Z" fill="#263238"/>
<path d="M139.144 211.361C137.595 211.051 97.1677 199.742 88.3386 198.348C88.1837 198.348 88.3386 197.883 88.4935 197.883C115.6 202.686 138.06 209.967 139.764 210.587C141.778 211.361 142.087 211.826 139.144 211.361Z" fill="#263238"/>
<path d="M123.965 206.404C123.965 206.249 121.331 192.616 120.867 191.841C120.402 190.912 119.318 189.052 118.853 188.123C117.924 186.264 117.149 184.405 116.375 182.546C116.375 182.391 116.53 182.236 116.684 182.391C117.614 184.25 118.543 185.954 119.628 187.658C120.092 188.433 120.712 189.362 121.176 190.137C121.176 190.137 118.698 176.814 118.388 174.49C118.388 174.335 118.543 174.335 118.543 174.49C119.318 176.814 124.584 203.615 125.359 206.714C125.204 206.559 124.739 206.559 123.965 206.404Z" fill="#263238"/>
<path d="M94.0698 246.374C91.4365 245.599 80.9036 243.895 78.2704 243.585C78.5802 242.656 79.1998 238.938 79.1998 237.853C79.1998 237.698 79.0449 237.698 79.0449 237.853C78.4253 238.783 77.341 243.431 77.0312 244.515C77.0312 244.515 91.2817 246.219 94.0698 246.374C94.2247 246.374 94.2247 246.374 94.0698 246.374Z" fill="#263238"/>
<path d="M90.5071 140.562C90.5071 140.562 91.5914 151.096 100.265 152.646C108.94 154.35 125.204 142.886 125.204 142.886C125.204 142.886 118.698 134.055 106.926 134.055C95.6186 134.055 90.5071 140.562 90.5071 140.562Z" fill="#D3766A"/>
<path d="M115.445 137.618C114.981 139.168 106.771 149.083 99.4912 148.308C97.1677 147.998 97.9422 135.14 97.9422 135.14L97.7873 134.21L95.6188 120.577L112.038 111.281L114.361 110.042C114.361 110.042 114.671 113.76 115.136 118.563C115.136 118.718 115.136 119.028 115.136 119.182C115.136 119.492 115.136 119.647 115.291 119.957C115.291 120.732 115.445 121.351 115.445 122.126C115.445 122.746 115.6 123.21 115.6 123.83C115.6 124.45 115.6 124.915 115.755 125.534C115.91 131.112 115.755 136.999 115.445 137.618Z" fill="#D3766A"/>
<path d="M115.136 118.563C110.644 129.097 101.815 132.97 97.9422 134.21L95.7736 120.577L112.193 111.281L114.516 110.042C114.361 110.042 114.671 113.915 115.136 118.563Z" fill="#263238"/>
<path d="M79.8193 95.169C73.4686 118.562 86.7896 124.914 91.7463 126.308C96.3931 127.548 112.038 131.266 120.712 108.647C129.386 86.0285 120.557 75.8036 110.334 72.3953C100.111 68.987 86.17 71.7756 79.8193 95.169Z" fill="#D3766A"/>
<path d="M88.3387 90.5214C88.9582 90.5214 89.4229 90.5214 90.0425 90.5214C90.6621 90.5214 91.1268 90.6763 91.7463 90.2115C92.0561 90.0566 92.211 89.4369 92.0561 89.127C91.7463 88.3524 90.9719 88.1975 90.1974 88.1975C89.4229 88.1975 88.6484 88.3524 88.0288 88.8172C87.0995 89.4369 87.5642 90.5214 88.3387 90.5214Z" fill="#263238"/>
<path d="M104.912 92.8452C104.448 92.6903 103.983 92.3805 103.364 92.2255C102.744 91.9157 102.279 91.7608 101.969 91.296C101.815 90.9862 101.969 90.5214 102.124 90.2115C102.744 89.7468 103.518 89.9017 104.293 90.2115C105.067 90.5214 105.532 90.9862 105.997 91.7608C106.461 92.3804 105.687 93.1551 104.912 92.8452Z" fill="#263238"/>
<path d="M99.646 100.437L99.8009 100.591C99.3362 102.141 99.1813 104 100.42 104.929V105.084C98.5617 104.31 98.8715 101.831 99.646 100.437Z" fill="#263238"/>
<path d="M101.351 99.0421C103.985 99.5069 102.9 104.619 100.422 104.309C98.0985 103.845 99.1828 98.7322 101.351 99.0421Z" fill="#263238"/>
<path d="M102.434 99.507C102.899 99.9718 103.209 100.437 103.673 100.746C104.293 100.901 104.912 100.437 105.377 100.127C105.377 100.127 105.532 100.127 105.377 100.282C105.222 101.211 104.603 102.296 103.518 102.141C102.589 102.141 101.969 101.056 101.969 99.9718C101.969 99.662 102.279 99.3521 102.434 99.507Z" fill="#263238"/>
<path d="M90.0424 97.1829C90.0424 97.1829 89.8875 97.1829 90.0424 97.1829C89.5777 98.887 88.9582 100.746 87.4092 100.901V101.056C89.1131 101.211 89.8875 98.7321 90.0424 97.1829Z" fill="#263238"/>
<path d="M88.9581 95.169C86.4798 94.3944 85.0858 99.5068 87.4092 100.281C89.7326 100.901 90.9718 95.7887 88.9581 95.169Z" fill="#263238"/>
<path d="M87.719 95.3241C87.2543 95.479 86.6347 95.9437 86.1701 95.7888C85.5505 95.6339 85.3956 95.0142 85.0858 94.3945C85.0858 94.3945 85.0858 94.3945 84.9309 94.3945C84.6211 95.3241 84.776 96.4085 85.5505 96.8733C86.325 97.3381 87.2543 96.5634 87.719 95.6339C88.0288 95.479 87.8739 95.1691 87.719 95.3241Z" fill="#263238"/>
<path d="M95.4638 112.521C94.9991 112.83 94.5344 113.295 93.9148 113.295C93.2952 113.295 92.6757 112.83 92.211 112.675H92.0561C92.3659 113.295 93.1403 113.915 93.9148 113.915C94.8442 113.915 95.3089 113.295 95.4638 112.521C95.6187 112.521 95.4638 112.521 95.4638 112.521Z" fill="#263238"/>
<path d="M90.0425 105.239C90.0425 105.239 89.1131 107.563 88.9582 108.648C88.9582 108.802 89.268 108.802 89.5778 108.957C91.4365 109.732 93.6051 109.422 95.309 108.028C95.4639 107.873 95.3089 107.718 95.1541 107.873C93.4502 108.648 91.7463 108.493 89.8876 108.183C89.8876 107.873 91.4365 104.31 91.2816 104.155C90.6621 104 89.4229 104.155 88.6484 104.155C90.3523 99.1972 92.6757 94.7045 94.2247 89.7469C94.2247 89.592 94.0698 89.4371 93.9149 89.592C90.9718 94.2397 88.9582 99.8169 87.2543 104.929C86.9445 105.704 89.5778 105.394 90.0425 105.239Z" fill="#263238"/>
<path d="M89.8875 108.648C89.8875 108.648 90.5071 110.352 91.9012 111.281C92.3658 111.591 92.9854 111.901 93.605 111.901C94.9991 111.901 95.3089 110.816 95.3089 109.732C95.3089 108.802 95.154 108.028 95.154 108.028C95.154 108.028 92.9854 109.267 89.8875 108.648Z" fill="#263238"/>
<path d="M91.9012 111.281C92.3659 111.591 92.9855 111.901 93.6051 111.901C94.9991 111.901 95.3089 110.817 95.3089 109.732C94.0698 109.577 92.3659 110.042 91.9012 111.281Z" fill="#FF9CBD"/>
<path d="M119.473 108.183C116.994 107.253 112.347 98.4225 115.755 86.1836C115.755 86.1836 113.587 97.493 113.896 99.1972C114.206 101.056 111.263 94.2396 113.896 84.3245C113.896 84.3245 107.236 86.6484 102.279 86.6484C97.3225 86.6484 94.3795 85.7189 94.2246 85.2541C93.9148 84.7893 101.505 84.6344 103.983 83.0852C103.983 83.0852 89.8875 85.2541 84.1564 84.0147C83.5368 83.8598 86.6347 70.0716 97.0127 66.8182C107.546 63.5648 119.627 73.7898 122.416 78.5924C122.416 78.5924 126.598 80.4515 129.541 88.3525C132.329 96.4085 122.261 109.112 119.473 108.183Z" fill="#263238"/>
<path d="M115.91 108.802C115.91 108.802 122.416 102.296 125.514 104.774C128.611 107.253 122.725 117.323 118.388 118.098C114.206 118.872 113.432 114.999 113.432 114.999L115.91 108.802Z" fill="#D3766A"/>
<path d="M123.81 107.563C123.81 107.563 123.81 107.718 123.81 107.563C120.867 108.338 118.853 110.662 117.459 113.14C118.543 112.211 119.627 111.901 120.867 113.14C120.867 113.14 120.867 113.295 120.712 113.295C119.627 112.83 118.698 112.83 117.769 113.605C117.149 114.225 116.53 114.844 116.065 115.619C115.91 115.774 115.445 115.619 115.6 115.309C116.22 111.746 119.937 107.253 123.81 107.563Z" fill="#263238"/>
<path d="M140.848 253.655C141.003 253.655 141.158 253.655 141.313 253.81C141.158 253.655 141.003 253.655 140.848 253.655Z" fill="#D3766A"/>
<path d="M179.417 246.064C179.417 246.374 179.572 246.684 179.572 246.994V246.839C179.572 246.529 179.417 246.374 179.417 246.064Z" fill="#FFC727"/>
<path d="M179.417 246.064C179.417 246.374 179.572 246.684 179.572 246.994V246.839C179.572 246.529 179.417 246.374 179.417 246.064Z" fill="#FFC727"/>
<path d="M138.99 257.838C139.454 257.993 139.764 257.993 140.229 258.148C139.764 257.993 139.454 257.993 138.99 257.838Z" fill="#FFC727"/>
<path d="M179.417 246.064C179.417 246.374 179.572 246.684 179.572 246.994V246.839C179.572 246.529 179.417 246.374 179.417 246.064Z" fill="#DBDBDB"/>
</svg>
