<svg width="24" height="24" viewBox="0 0 24 24" fill="none" xmlns="http://www.w3.org/2000/svg">
<g clip-path="url(#clip0)">
<path d="M23.973 24.0197V24.0187H23.979V15.2167C23.979 10.9107 23.052 7.59375 18.018 7.59375C15.598 7.59375 13.974 8.92175 13.311 10.1807H13.241V7.99575H8.46802V24.0187H13.438V16.0847C13.438 13.9957 13.834 11.9757 16.421 11.9757C18.97 11.9757 19.008 14.3597 19.008 16.2187V24.0197H23.973Z" fill="black"/>
<path d="M0.375 7.9967H5.351V24.0197H0.375V7.9967Z" fill="black"/>
<path d="M2.882 0C1.291 0 0 1.291 0 2.882C0 4.473 1.291 5.791 2.882 5.791C4.473 5.791 5.764 4.473 5.764 2.882C5.763 1.291 4.472 0 2.882 0V0Z" fill="black"/>
</g>
<defs>
<clipPath id="clip0">
<rect width="24" height="24" fill="white"/>
</clipPath>
</defs>
</svg>
