<svg width="14" height="19" viewBox="0 0 14 19" fill="none" xmlns="http://www.w3.org/2000/svg">
<path d="M7 0.0795898C3.14018 0.0795898 0 3.00396 0 6.59848C0 11.0594 6.26431 17.6083 6.53102 17.8849C6.78154 18.1447 7.21892 18.1443 7.46898 17.8849C7.73569 17.6083 14 11.0594 14 6.59848C13.9999 3.00396 10.8598 0.0795898 7 0.0795898ZM7 9.87832C5.05803 9.87832 3.47816 8.40699 3.47816 6.59848C3.47816 4.78997 5.05807 3.31868 7 3.31868C8.94193 3.31868 10.5218 4.79001 10.5218 6.59852C10.5218 8.40703 8.94193 9.87832 7 9.87832Z" fill="black"/>
</svg>
